<?xml version="1.0" encoding="UTF-8" ?>
<!DOCTYPE svg PUBLIC "-//W3C//DTD SVG 1.1//EN" "http://www.w3.org/Graphics/SVG/1.1/DTD/svg11.dtd">
<svg width="250pt" height="250pt" viewBox="0 0 250 250" version="1.1" xmlns="http://www.w3.org/2000/svg">
<g id="#0099ccff">
<path fill="#0099cc" opacity="1.00" d=" M 34.43 0.00 L 216.12 0.00 C 223.53 0.97 230.85 3.60 236.57 8.52 C 244.35 14.81 249.08 24.41 250.00 34.32 L 250.00 145.13 C 249.57 146.68 249.14 148.24 248.72 149.80 C 246.51 151.36 244.42 153.25 244.78 156.25 C 241.14 156.25 237.50 156.26 233.86 156.32 C 232.70 154.96 231.57 153.58 230.41 152.21 C 229.78 152.25 228.51 152.34 227.88 152.38 C 226.76 151.00 225.61 149.65 224.48 148.28 C 222.20 148.31 219.92 148.34 217.65 148.37 C 217.41 147.85 216.93 146.82 216.70 146.30 C 212.46 146.36 208.23 146.31 204.00 146.38 C 203.03 149.02 200.05 148.18 197.87 148.49 C 196.98 146.98 196.08 145.47 195.23 143.94 C 198.37 143.85 201.50 143.82 204.64 143.81 C 204.62 140.70 204.62 137.59 204.64 134.47 C 201.51 134.47 198.38 134.46 195.25 134.44 L 195.26 132.99 C 195.27 130.37 195.29 127.76 195.30 125.14 C 192.15 125.15 189.01 125.15 185.87 125.15 C 185.86 115.83 185.83 106.51 185.90 97.18 C 182.96 97.14 180.03 97.09 177.10 96.99 C 177.12 97.26 177.16 97.82 177.17 98.09 C 176.55 107.05 177.09 116.05 176.84 125.02 L 176.18 125.08 C 176.01 115.74 176.46 106.36 175.89 97.04 C 176.44 93.95 176.59 90.81 176.58 87.69 C 173.48 87.70 170.38 87.71 167.28 87.72 C 167.28 84.59 167.25 81.45 167.18 78.32 C 164.09 78.37 161.01 78.39 157.93 78.40 C 157.89 75.32 157.89 72.24 157.91 69.16 C 139.19 69.12 120.47 69.16 101.76 69.14 C 101.77 71.76 101.78 74.39 101.82 77.02 L 101.84 78.39 C 95.61 78.38 89.37 78.39 83.14 78.38 C 83.14 81.50 83.15 84.63 83.18 87.75 C 80.03 87.71 76.89 87.70 73.74 87.70 C 73.75 90.85 73.76 94.01 73.79 97.16 C 70.67 97.13 67.54 97.12 64.42 97.10 C 64.42 100.22 64.49 103.35 64.67 106.47 C 64.58 106.47 64.39 106.47 64.30 106.47 C 61.25 106.44 58.19 106.45 55.14 106.49 C 55.27 112.70 55.25 118.91 55.19 125.12 C 52.13 125.14 49.07 125.15 46.02 125.15 C 45.94 131.50 46.19 137.87 45.78 144.22 C 42.93 142.04 40.59 139.31 38.16 136.70 C 36.63 136.41 35.09 136.05 34.07 134.77 C 32.48 134.47 30.97 133.96 30.08 132.50 C 24.62 132.40 19.15 132.45 13.69 132.46 C 12.73 135.14 9.77 134.29 7.57 134.49 C 6.48 135.87 5.27 137.16 4.20 138.57 C 3.50 138.49 2.11 138.32 1.41 138.23 C 1.05 138.98 0.35 140.49 0.00 141.24 L 0.00 34.39 C 0.87 24.65 5.45 15.21 12.98 8.90 C 18.92 3.66 26.62 0.79 34.43 0.00 Z" />
<path fill="#0099cc" opacity="1.00" d=" M 46.08 144.21 C 49.13 143.97 52.19 143.80 55.25 143.78 C 55.22 144.25 55.16 145.17 55.13 145.64 C 54.94 146.32 54.56 147.70 54.37 148.38 C 52.62 148.34 50.87 148.31 49.12 148.27 C 48.10 146.92 47.08 145.57 46.08 144.21 Z" />
</g>
<g id="#4c2a3aff">
<path fill="#4c2a3a" opacity="1.00" d=" M 101.76 69.14 C 120.47 69.16 139.19 69.12 157.91 69.16 C 157.89 72.24 157.89 75.32 157.93 78.40 C 161.01 78.39 164.09 78.37 167.18 78.32 C 167.25 81.45 167.28 84.59 167.28 87.72 C 170.38 87.71 173.48 87.70 176.58 87.69 C 176.59 90.81 176.44 93.95 175.89 97.04 L 175.21 97.04 C 172.55 97.11 169.90 97.15 167.24 97.12 C 167.19 103.35 167.21 109.58 167.24 115.81 C 164.11 115.81 160.98 115.81 157.85 115.82 C 157.85 109.61 157.85 103.39 157.85 97.17 C 160.97 97.18 164.09 97.18 167.21 97.15 C 167.22 94.02 167.23 90.88 167.23 87.75 C 164.10 87.75 160.97 87.76 157.84 87.78 C 157.86 84.91 157.94 82.04 157.83 79.17 C 157.80 78.93 157.73 78.44 157.70 78.20 C 155.77 76.74 153.28 76.95 151.01 76.89 C 147.08 76.90 143.14 76.90 139.22 77.21 L 139.17 78.37 C 139.13 81.51 139.21 84.65 139.21 87.79 C 136.09 87.76 132.97 87.76 129.85 87.77 C 129.83 90.92 129.82 94.08 129.82 97.23 C 129.82 102.94 129.79 108.65 129.85 114.36 C 129.85 114.69 129.86 115.37 129.86 115.70 C 126.91 115.79 123.95 115.87 120.99 115.78 L 120.62 115.26 C 123.70 115.30 126.83 115.30 129.79 114.33 C 127.23 114.09 124.65 114.02 122.08 114.00 C 121.91 105.24 122.03 96.47 122.03 87.71 C 124.61 87.73 127.20 87.75 129.79 87.78 C 129.76 84.65 129.83 81.52 129.81 78.40 L 129.76 77.17 C 120.46 76.77 111.14 77.04 101.82 77.02 C 101.78 74.39 101.77 71.76 101.76 69.14 Z" />
<path fill="#4c2a3a" opacity="1.00" d=" M 83.14 78.38 C 89.37 78.39 95.61 78.38 101.84 78.39 C 101.84 78.83 101.84 79.72 101.84 80.16 C 101.84 82.71 101.84 85.26 101.82 87.81 C 95.60 87.75 89.39 87.80 83.18 87.75 C 83.15 84.63 83.14 81.50 83.14 78.38 Z" />
<path fill="#4c2a3a" opacity="1.00" d=" M 73.74 87.70 C 76.89 87.70 80.03 87.71 83.18 87.75 C 83.24 90.91 83.26 94.07 83.26 97.23 C 80.10 97.22 76.94 97.21 73.79 97.16 C 73.76 94.01 73.75 90.85 73.74 87.70 Z" />
<path fill="#4c2a3a" opacity="1.00" d=" M 64.42 97.10 C 67.54 97.12 70.67 97.13 73.79 97.16 L 73.79 98.32 C 73.80 101.05 73.81 103.78 73.83 106.51 C 70.78 106.49 67.72 106.49 64.67 106.47 C 64.49 103.35 64.42 100.22 64.42 97.10 Z" />
<path fill="#4c2a3a" opacity="1.00" d=" M 177.17 98.09 C 177.16 97.82 177.12 97.26 177.10 96.99 C 180.03 97.09 182.96 97.14 185.90 97.18 C 185.83 106.51 185.86 115.83 185.87 125.15 C 189.01 125.15 192.15 125.15 195.30 125.14 C 195.29 127.76 195.27 130.37 195.26 132.99 C 177.24 132.62 159.22 133.12 141.20 132.80 C 141.10 130.97 140.99 129.13 140.87 127.29 C 152.26 127.07 163.68 127.68 175.06 127.18 C 178.39 127.37 178.46 123.35 178.42 120.98 C 178.11 113.19 178.83 105.36 177.89 97.60 C 177.71 97.72 177.35 97.97 177.17 98.09 Z" />
<path fill="#4c2a3a" opacity="1.00" d=" M 55.14 106.49 C 58.19 106.45 61.25 106.44 64.30 106.47 C 64.45 109.58 64.50 112.70 64.50 115.83 C 76.95 115.80 89.40 115.79 101.86 115.82 C 101.84 118.93 101.85 122.05 101.87 125.17 C 104.98 125.18 108.08 125.18 111.19 125.16 C 111.21 131.38 111.21 137.60 111.20 143.83 C 108.09 143.82 104.98 143.82 101.87 143.84 C 101.84 146.95 101.84 150.06 101.84 153.18 C 92.50 153.20 83.16 153.21 73.81 153.16 C 73.80 156.31 73.80 159.46 73.82 162.60 C 70.68 162.58 67.54 162.59 64.41 162.60 C 64.44 159.47 64.46 156.33 64.45 153.20 C 61.37 153.25 58.29 153.26 55.22 153.28 C 55.21 150.73 55.16 148.18 55.13 145.64 C 55.16 145.17 55.22 144.25 55.25 143.78 C 52.19 143.80 49.13 143.97 46.08 144.21 L 45.78 144.22 C 46.19 137.87 45.94 131.50 46.02 125.15 C 49.07 125.15 52.13 125.14 55.19 125.12 C 55.25 118.91 55.27 112.70 55.14 106.49 M 55.21 125.15 C 55.18 128.28 55.19 131.40 55.29 134.52 L 55.14 134.52 C 55.22 137.60 55.21 140.69 55.15 143.77 C 58.26 143.82 61.37 143.82 64.48 143.82 C 73.86 143.80 83.23 143.82 92.61 143.80 C 95.68 143.79 98.75 143.82 101.82 143.87 C 101.84 140.74 101.84 137.62 101.89 134.49 L 101.78 134.49 C 101.85 131.38 101.86 128.27 101.86 125.16 C 86.31 125.20 70.76 125.21 55.21 125.15 Z" />
<path fill="#4c2a3a" opacity="1.00" d=" M 129.86 115.70 C 133.04 115.62 136.22 115.61 139.40 115.61 C 139.40 118.79 139.38 121.97 139.30 125.16 C 136.14 125.17 132.98 125.18 129.82 125.18 C 129.82 122.02 129.83 118.86 129.86 115.70 Z" />
<path fill="#4c2a3a" opacity="1.00" d=" M 195.25 134.44 C 198.38 134.46 201.51 134.47 204.64 134.47 C 204.62 137.59 204.62 140.70 204.64 143.81 C 201.50 143.82 198.37 143.85 195.23 143.94 C 195.42 150.14 195.18 156.34 195.35 162.54 C 192.19 162.59 189.02 162.59 185.86 162.59 C 185.86 165.68 185.87 168.78 185.90 171.87 C 171.23 171.86 156.55 171.98 141.88 171.81 C 141.41 171.78 140.48 171.72 140.01 171.69 C 140.95 169.31 141.15 166.75 141.45 164.24 C 154.31 163.98 167.18 164.19 180.05 164.23 C 181.98 164.25 183.96 164.00 185.57 162.83 C 185.63 162.58 185.74 162.08 185.80 161.83 C 185.96 158.95 185.89 156.07 185.88 153.19 C 170.30 153.10 154.73 153.40 139.16 153.03 C 139.19 150.00 139.20 146.97 139.19 143.94 C 157.83 143.70 176.48 143.79 195.12 143.90 C 195.22 140.75 195.26 137.60 195.25 134.44 Z" />
<path fill="#4c2a3a" opacity="1.00" d=" M 129.83 135.96 C 132.95 135.96 136.07 135.97 139.19 135.98 C 139.18 138.60 139.20 141.22 139.23 143.84 C 136.11 143.82 132.99 143.82 129.87 143.84 C 129.93 146.79 129.31 149.89 130.26 152.75 C 133.12 153.74 136.25 153.10 139.22 153.18 C 139.20 156.29 139.19 159.41 139.20 162.53 C 136.11 162.50 133.02 162.52 129.93 162.57 C 129.79 159.59 130.27 156.50 129.42 153.61 C 126.59 152.62 123.47 153.33 120.53 153.22 C 120.52 150.08 120.52 146.94 120.52 143.80 C 123.63 143.80 126.74 143.81 129.85 143.83 C 129.84 141.21 129.83 138.58 129.83 135.96 Z" />
<path fill="#4c2a3a" opacity="1.00" d=" M 73.80 163.95 C 79.41 164.03 85.02 163.90 90.63 164.07 C 90.92 166.66 91.41 169.22 92.10 171.73 L 92.13 171.90 C 86.00 171.89 79.86 171.88 73.73 171.90 C 73.74 169.25 73.75 166.60 73.80 163.95 Z" />
<path fill="#4c2a3a" opacity="1.00" d=" M 92.60 171.90 C 108.17 172.02 123.78 171.40 139.34 172.21 C 139.21 175.04 139.22 177.88 139.25 180.71 L 138.49 180.56 C 137.88 181.75 137.28 182.93 136.59 184.07 C 136.38 182.78 136.18 181.50 135.99 180.21 C 133.23 179.97 133.32 182.24 132.77 183.84 C 132.82 182.89 132.86 181.95 132.90 181.00 C 131.99 181.00 130.17 180.99 129.25 180.99 C 129.25 181.70 129.26 183.11 129.26 183.81 C 128.76 182.96 128.78 181.92 128.54 181.00 C 127.88 181.00 126.55 181.00 125.89 181.00 C 125.44 181.00 124.54 181.00 124.09 181.00 C 122.71 181.00 121.32 181.00 119.93 181.01 C 119.50 181.01 118.65 181.00 118.22 181.00 C 113.44 180.99 108.66 180.99 103.89 181.00 C 103.49 181.00 102.69 181.00 102.28 181.00 C 99.01 181.00 95.73 181.00 92.45 181.00 C 92.49 177.96 92.52 174.93 92.60 171.90 Z" />
</g>
<g id="#330b25ff">
<path fill="#330b25" opacity="1.00" d=" M 101.82 77.02 C 111.14 77.04 120.46 76.77 129.76 77.17 L 129.81 78.40 C 120.49 78.44 111.16 78.45 101.84 78.39 L 101.82 77.02 Z" />
</g>
<g id="#32081fff">
<path fill="#32081f" opacity="1.00" d=" M 139.22 77.21 C 143.14 76.90 147.08 76.90 151.01 76.89 C 153.28 76.95 155.77 76.74 157.70 78.20 C 151.53 78.55 145.34 78.32 139.17 78.37 L 139.22 77.21 Z" />
</g>
<g id="#eef9d0ff">
<path fill="#eef9d0" opacity="1.00" d=" M 101.84 78.39 C 111.16 78.45 120.49 78.44 129.81 78.40 C 129.83 81.52 129.76 84.65 129.79 87.78 C 127.20 87.75 124.61 87.73 122.03 87.71 L 120.58 87.69 L 119.33 87.69 C 121.87 86.03 124.93 85.81 127.88 85.62 C 127.90 83.82 127.93 82.03 127.95 80.24 C 119.25 80.06 110.55 80.39 101.84 80.16 C 101.84 79.72 101.84 78.83 101.84 78.39 Z" />
<path fill="#eef9d0" opacity="1.00" d=" M 83.18 87.75 C 89.39 87.80 95.60 87.75 101.82 87.81 C 101.76 90.88 101.80 93.95 101.68 97.02 C 101.30 97.05 100.53 97.10 100.15 97.13 C 100.11 94.47 100.05 91.80 99.97 89.14 C 95.05 88.97 90.11 89.00 85.19 89.22 C 85.11 91.88 85.05 94.53 84.98 97.18 C 84.55 97.20 83.70 97.25 83.27 97.27 L 83.23 98.31 C 80.09 98.36 76.94 98.36 73.79 98.32 L 73.79 97.16 C 76.94 97.21 80.10 97.22 83.26 97.23 C 83.26 94.07 83.24 90.91 83.18 87.75 Z" />
<path fill="#eef9d0" opacity="1.00" d=" M 177.91 180.27 C 182.43 180.32 186.96 180.30 191.49 180.34 C 191.49 182.13 191.49 183.91 191.50 185.70 C 190.99 185.71 189.97 185.74 189.46 185.75 C 189.36 184.38 189.26 183.02 189.15 181.66 C 187.30 182.18 187.83 184.28 187.40 185.67 C 186.96 185.69 186.09 185.74 185.65 185.76 C 185.17 184.34 185.81 182.04 183.82 181.63 C 183.71 182.99 183.61 184.36 183.52 185.73 C 183.06 185.73 182.12 185.74 181.65 185.75 C 181.26 184.31 181.66 182.36 180.07 181.54 C 179.53 183.20 180.21 185.83 177.89 186.28 C 177.85 184.27 177.87 182.27 177.91 180.27 Z" />
</g>
<g id="#ecfddeff">
<path fill="#ecfdde" opacity="1.00" d=" M 139.17 78.37 C 145.34 78.32 151.53 78.55 157.70 78.20 C 157.73 78.44 157.80 78.93 157.83 79.17 C 157.94 82.04 157.86 84.91 157.84 87.78 C 160.97 87.76 164.10 87.75 167.23 87.75 C 167.23 90.88 167.22 94.02 167.21 97.15 C 164.09 97.18 160.97 97.18 157.85 97.17 C 157.85 103.39 157.85 109.61 157.85 115.82 C 160.98 115.81 164.11 115.81 167.24 115.81 C 167.21 109.58 167.19 103.35 167.24 97.12 C 169.90 97.15 172.55 97.11 175.21 97.04 L 175.89 97.04 C 176.46 106.36 176.01 115.74 176.18 125.08 C 166.89 125.39 157.60 125.11 148.30 125.22 C 148.41 122.07 148.46 118.92 148.45 115.77 C 145.81 115.77 143.16 115.78 140.52 115.79 C 140.50 118.92 140.54 122.05 140.65 125.18 C 140.31 125.17 139.64 125.16 139.30 125.16 C 139.38 121.97 139.40 118.79 139.40 115.61 C 136.22 115.61 133.04 115.62 129.86 115.70 C 129.86 115.37 129.85 114.69 129.85 114.36 C 132.95 114.47 136.05 114.51 139.16 114.49 C 139.32 108.71 139.34 102.93 139.12 97.16 C 136.02 97.18 132.92 97.20 129.82 97.23 C 129.82 94.08 129.83 90.92 129.85 87.77 C 132.97 87.76 136.09 87.76 139.21 87.79 C 139.21 84.65 139.13 81.51 139.17 78.37 Z" />
</g>
<g id="#e3ebbdff">
<path fill="#e3ebbd" opacity="1.00" d=" M 101.84 80.16 C 110.55 80.39 119.25 80.06 127.95 80.24 C 127.93 82.03 127.90 83.82 127.88 85.62 C 124.93 85.81 121.87 86.03 119.33 87.69 C 113.49 87.86 107.65 87.79 101.82 87.81 C 101.84 85.26 101.84 82.71 101.84 80.16 Z" />
<path fill="#e3ebbd" opacity="1.00" d=" M 85.19 89.22 C 90.11 89.00 95.05 88.97 99.97 89.14 C 100.05 91.80 100.11 94.47 100.15 97.13 C 95.09 97.35 90.03 97.06 84.98 97.18 C 85.05 94.53 85.11 91.88 85.19 89.22 Z" />
<path fill="#e3ebbd" opacity="1.00" d=" M 73.79 98.32 C 76.94 98.36 80.09 98.36 83.23 98.31 C 83.19 100.88 83.34 103.45 83.09 106.01 C 80.25 107.12 76.88 106.32 73.83 106.51 C 73.81 103.78 73.80 101.05 73.79 98.32 Z" />
<path fill="#e3ebbd" opacity="1.00" d=" M 55.21 125.15 C 70.76 125.21 86.31 125.20 101.86 125.16 C 101.86 128.27 101.85 131.38 101.78 134.49 C 98.66 134.48 95.55 134.50 92.44 134.57 C 92.50 137.65 92.55 140.72 92.61 143.80 C 83.23 143.82 73.86 143.80 64.48 143.82 C 64.49 140.70 64.51 137.59 64.52 134.47 C 61.44 134.48 58.37 134.50 55.29 134.52 C 55.19 131.40 55.18 128.28 55.21 125.15 Z" />
</g>
<g id="#d4bf27ff">
<path fill="#d4bf27" opacity="1.00" d=" M 101.82 87.81 C 107.65 87.79 113.49 87.86 119.33 87.69 L 120.58 87.69 C 120.66 96.88 120.51 106.07 120.62 115.26 L 120.99 115.78 C 123.95 115.87 126.91 115.79 129.86 115.70 C 129.83 118.86 129.82 122.02 129.82 125.18 C 132.98 125.18 136.14 125.17 139.30 125.16 L 139.34 125.73 C 139.34 128.61 139.25 131.50 139.20 134.38 L 139.20 134.65 C 136.07 134.59 132.95 134.57 129.83 134.56 L 129.83 135.96 C 129.83 138.58 129.84 141.21 129.85 143.83 C 126.74 143.81 123.63 143.80 120.52 143.80 C 117.41 143.81 114.30 143.83 111.20 143.83 C 111.21 137.60 111.21 131.38 111.19 125.16 C 108.08 125.18 104.98 125.18 101.87 125.17 C 101.85 122.05 101.84 118.93 101.86 115.82 C 89.40 115.79 76.95 115.80 64.50 115.83 C 64.50 112.70 64.45 109.58 64.30 106.47 C 64.39 106.47 64.58 106.47 64.67 106.47 C 67.72 106.49 70.78 106.49 73.83 106.51 C 76.88 106.32 80.25 107.12 83.09 106.01 C 83.34 103.45 83.19 100.88 83.23 98.31 L 83.27 97.27 C 83.70 97.25 84.55 97.20 84.98 97.18 C 90.03 97.06 95.09 97.35 100.15 97.13 C 100.53 97.10 101.30 97.05 101.68 97.02 C 101.80 93.95 101.76 90.88 101.82 87.81 Z" />
<path fill="#d4bf27" opacity="1.00" d=" M 55.14 134.52 L 55.29 134.52 C 58.37 134.50 61.44 134.48 64.52 134.47 C 64.51 137.59 64.49 140.70 64.48 143.82 C 61.37 143.82 58.26 143.82 55.15 143.77 C 55.21 140.69 55.22 137.60 55.14 134.52 Z" />
<path fill="#d4bf27" opacity="1.00" d=" M 92.44 134.57 C 95.55 134.50 98.66 134.48 101.78 134.49 L 101.89 134.49 C 101.84 137.62 101.84 140.74 101.82 143.87 C 98.75 143.82 95.68 143.79 92.61 143.80 C 92.55 140.72 92.50 137.65 92.44 134.57 Z" />
</g>
<g id="#330f3cff">
<path fill="#330f3c" opacity="1.00" d=" M 120.58 87.69 L 122.03 87.71 C 122.03 96.47 121.91 105.24 122.08 114.00 C 124.65 114.02 127.23 114.09 129.79 114.33 C 126.83 115.30 123.70 115.30 120.62 115.26 C 120.51 106.07 120.66 96.88 120.58 87.69 Z" />
</g>
<g id="#cac2c2ff">
<path fill="#cac2c2" opacity="1.00" d=" M 129.82 97.23 C 132.92 97.20 136.02 97.18 139.12 97.16 C 139.34 102.93 139.32 108.71 139.16 114.49 C 136.05 114.51 132.95 114.47 129.85 114.36 C 129.79 108.65 129.82 102.94 129.82 97.23 Z" />
<path fill="#cac2c2" opacity="1.00" d=" M 140.52 115.79 C 143.16 115.78 145.81 115.77 148.45 115.77 C 148.46 118.92 148.41 122.07 148.30 125.22 C 145.75 125.22 143.20 125.21 140.65 125.18 C 140.54 122.05 140.50 118.92 140.52 115.79 Z" />
</g>
<g id="#472235ff">
<path fill="#472235" opacity="1.00" d=" M 177.17 98.09 C 177.35 97.97 177.71 97.72 177.89 97.60 C 178.83 105.36 178.11 113.19 178.42 120.98 C 178.46 123.35 178.39 127.37 175.06 127.18 C 163.68 127.68 152.26 127.07 140.87 127.29 C 140.49 126.90 139.72 126.12 139.34 125.73 L 139.30 125.16 C 139.64 125.16 140.31 125.17 140.65 125.18 C 143.20 125.21 145.75 125.22 148.30 125.22 C 157.60 125.11 166.89 125.39 176.18 125.08 L 176.84 125.02 C 177.09 116.05 176.55 107.05 177.17 98.09 Z" />
</g>
<g id="#372639ff">
<path fill="#372639" opacity="1.00" d=" M 139.34 125.73 C 139.72 126.12 140.49 126.90 140.87 127.29 C 140.99 129.13 141.10 130.97 141.20 132.80 C 159.22 133.12 177.24 132.62 195.26 132.99 L 195.25 134.44 C 176.57 134.39 157.88 134.52 139.20 134.38 C 139.25 131.50 139.34 128.61 139.34 125.73 Z" />
</g>
<g id="#ffffffff">
<path fill="#ffffff" opacity="1.00" d=" M 13.69 132.46 C 19.15 132.45 24.62 132.40 30.08 132.50 C 30.97 133.96 32.48 134.47 34.07 134.77 C 35.09 136.05 36.63 136.41 38.16 136.70 C 40.59 139.31 42.93 142.04 45.78 144.22 L 46.08 144.21 C 47.08 145.57 48.10 146.92 49.12 148.27 C 50.87 148.31 52.62 148.34 54.37 148.38 C 54.56 147.70 54.94 146.32 55.13 145.64 C 55.16 148.18 55.21 150.73 55.22 153.28 C 58.29 153.26 61.37 153.25 64.45 153.20 C 64.46 156.33 64.44 159.47 64.41 162.60 C 67.54 162.59 70.68 162.58 73.82 162.60 L 73.80 163.95 C 73.75 166.60 73.74 169.25 73.73 171.90 C 79.86 171.88 86.00 171.89 92.13 171.90 L 92.60 171.90 C 92.52 174.93 92.49 177.96 92.45 181.00 C 95.73 181.00 99.01 181.00 102.28 181.00 C 102.26 182.69 102.24 184.37 102.22 186.06 C 99.58 186.09 96.93 186.12 94.28 186.15 C 94.36 194.02 94.32 201.90 94.34 209.78 C 93.46 209.77 91.71 209.77 90.84 209.77 C 90.56 210.27 89.99 211.27 89.70 211.77 C 89.01 211.80 87.62 211.85 86.93 211.87 C 86.64 212.28 86.07 213.09 85.79 213.49 C 85.40 213.56 84.62 213.70 84.23 213.77 C 84.35 203.89 84.34 194.01 84.26 184.13 C 80.97 184.14 77.68 184.09 74.40 183.96 C 74.34 182.70 74.29 181.44 74.24 180.19 C 72.28 180.11 70.32 180.03 68.36 179.95 C 68.43 176.02 68.43 172.09 68.35 168.16 C 63.16 168.27 57.96 168.28 52.77 168.15 C 52.70 169.91 52.63 171.67 52.57 173.44 C 52.08 173.80 51.09 174.53 50.60 174.89 C 50.65 181.87 50.61 188.86 50.67 195.84 C 48.66 195.88 46.65 195.92 44.63 195.96 C 44.53 190.03 44.56 184.11 44.63 178.18 C 38.70 178.14 32.78 178.16 26.85 178.15 C 26.82 180.76 26.80 183.37 26.78 185.98 C 24.15 186.05 21.51 186.11 18.88 186.16 C 18.82 190.71 18.83 195.27 18.92 199.82 C 16.02 200.23 11.95 198.64 10.19 201.78 C 9.91 201.78 9.33 201.76 9.04 201.76 C 9.04 195.81 9.25 189.87 9.05 183.93 C 6.04 183.90 3.02 183.88 0.00 183.87 L 0.00 141.24 C 0.35 140.49 1.05 138.98 1.41 138.23 C 2.11 138.32 3.50 138.49 4.20 138.57 C 5.27 137.16 6.48 135.87 7.57 134.49 C 9.77 134.29 12.73 135.14 13.69 132.46 Z" />
<path fill="#ffffff" opacity="1.00" d=" M 195.35 162.54 C 195.18 156.34 195.42 150.14 195.23 143.94 C 196.08 145.47 196.98 146.98 197.87 148.49 C 200.05 148.18 203.03 149.02 204.00 146.38 C 208.23 146.31 212.46 146.36 216.70 146.30 C 216.93 146.82 217.41 147.85 217.65 148.37 C 219.92 148.34 222.20 148.31 224.48 148.28 C 225.61 149.65 226.76 151.00 227.88 152.38 C 228.51 152.34 229.78 152.25 230.41 152.21 C 231.57 153.58 232.70 154.96 233.86 156.32 C 237.50 156.26 241.14 156.25 244.78 156.25 C 244.42 153.25 246.51 151.36 248.72 149.80 C 249.14 148.24 249.57 146.68 250.00 145.13 L 250.00 185.85 C 247.65 185.86 245.29 185.88 242.95 185.90 C 242.84 193.80 242.84 201.70 242.98 209.60 C 241.24 209.67 239.53 210.08 238.25 211.33 C 236.52 212.15 234.76 212.92 233.00 213.68 C 233.43 203.80 233.11 193.89 233.16 184.00 C 229.88 183.98 226.60 183.94 223.32 183.88 C 223.25 182.60 223.19 181.33 223.12 180.05 C 221.17 179.98 219.22 179.91 217.28 179.85 C 217.32 175.91 217.32 171.98 217.26 168.05 C 211.96 168.05 206.66 168.04 201.36 168.10 C 201.32 169.71 201.29 171.31 201.26 172.92 C 200.79 173.46 199.86 174.54 199.40 175.08 C 199.34 181.98 199.32 188.88 199.46 195.78 C 197.44 195.79 195.43 195.80 193.42 195.82 C 193.51 189.87 193.56 183.93 193.42 177.99 C 187.48 177.99 181.53 177.99 175.58 177.99 C 175.59 180.59 175.59 183.20 175.61 185.80 C 172.96 185.88 170.31 185.95 167.66 186.02 C 167.55 190.64 167.57 195.27 167.76 199.88 C 164.74 200.01 161.18 199.03 158.86 201.55 C 158.58 201.61 158.01 201.73 157.73 201.79 C 157.71 195.87 157.74 189.96 157.74 184.05 C 154.47 183.99 151.21 183.95 147.94 183.93 C 147.87 182.66 147.81 181.38 147.74 180.11 C 145.78 180.05 143.83 179.98 141.88 179.92 C 141.87 177.21 141.87 174.51 141.88 171.81 C 156.55 171.98 171.23 171.86 185.90 171.87 C 185.87 168.78 185.86 165.68 185.86 162.59 C 189.02 162.59 192.19 162.59 195.35 162.54 Z" />
<path fill="#ffffff" opacity="1.00" d=" M 119.93 181.01 C 121.32 181.00 122.71 181.00 124.09 181.00 C 124.12 185.97 124.12 190.93 124.08 195.89 C 122.73 195.90 121.38 195.91 120.03 195.92 C 119.89 190.95 119.88 185.98 119.93 181.01 Z" />
</g>
<g id="#ee5140ff">
<path fill="#ee5140" opacity="1.00" d=" M 139.20 134.38 C 157.88 134.52 176.57 134.39 195.25 134.44 C 195.26 137.60 195.22 140.75 195.12 143.90 C 176.48 143.79 157.83 143.70 139.19 143.94 C 139.20 146.97 139.19 150.00 139.16 153.03 C 154.73 153.40 170.30 153.10 185.88 153.19 C 185.89 156.07 185.96 158.95 185.80 161.83 C 185.74 162.08 185.63 162.58 185.57 162.83 C 170.12 162.23 154.65 162.80 139.20 162.53 C 139.19 159.41 139.20 156.29 139.22 153.18 C 136.25 153.10 133.12 153.74 130.26 152.75 C 129.31 149.89 129.93 146.79 129.87 143.84 C 132.99 143.82 136.11 143.82 139.23 143.84 C 139.20 141.22 139.18 138.60 139.19 135.98 L 139.20 134.65 L 139.20 134.38 Z" />
</g>
<g id="#300b3dff">
<path fill="#300b3d" opacity="1.00" d=" M 129.83 134.56 C 132.95 134.57 136.07 134.59 139.20 134.65 L 139.19 135.98 C 136.07 135.97 132.95 135.96 129.83 135.96 L 129.83 134.56 Z" />
</g>
<g id="#e48116ff">
<path fill="#e48116" opacity="1.00" d=" M 101.87 143.84 C 104.98 143.82 108.09 143.82 111.20 143.83 C 114.30 143.83 117.41 143.81 120.52 143.80 C 120.52 146.94 120.52 150.08 120.53 153.22 C 123.47 153.33 126.59 152.62 129.42 153.61 C 130.27 156.50 129.79 159.59 129.93 162.57 C 133.02 162.52 136.11 162.50 139.20 162.53 C 139.26 165.76 139.27 168.99 139.34 172.21 C 123.78 171.40 108.17 172.02 92.60 171.90 L 92.13 171.90 L 92.10 171.73 C 92.33 168.68 92.47 165.63 92.52 162.57 C 86.29 162.62 80.05 162.61 73.82 162.60 C 73.80 159.46 73.80 156.31 73.81 153.16 C 83.16 153.21 92.50 153.20 101.84 153.18 C 101.84 150.06 101.84 146.95 101.87 143.84 Z" />
</g>
<g id="#321b40ff">
<path fill="#321b40" opacity="1.00" d=" M 73.82 162.60 C 80.05 162.61 86.29 162.62 92.52 162.57 C 92.47 165.63 92.33 168.68 92.10 171.73 C 91.41 169.22 90.92 166.66 90.63 164.07 C 85.02 163.90 79.41 164.03 73.80 163.95 L 73.82 162.60 Z" />
</g>
<g id="#3b2739ff">
<path fill="#3b2739" opacity="1.00" d=" M 139.20 162.53 C 154.65 162.80 170.12 162.23 185.57 162.83 C 183.96 164.00 181.98 164.25 180.05 164.23 C 167.18 164.19 154.31 163.98 141.45 164.24 C 141.15 166.75 140.95 169.31 140.01 171.69 L 139.34 172.21 C 139.27 168.99 139.26 165.76 139.20 162.53 Z" />
</g>
<g id="#8eced7ff">
<path fill="#8eced7" opacity="1.00" d=" M 52.77 168.15 C 57.96 168.28 63.16 168.27 68.35 168.16 C 68.43 172.09 68.43 176.02 68.36 179.95 C 70.32 180.03 72.28 180.11 74.24 180.19 C 74.29 181.44 74.34 182.70 74.40 183.96 C 77.68 184.09 80.97 184.14 84.26 184.13 C 84.34 194.01 84.35 203.89 84.23 213.77 C 83.77 213.85 82.83 214.01 82.36 214.09 C 82.47 204.76 82.46 195.43 82.33 186.10 C 77.67 185.87 73.01 185.82 68.35 186.09 C 68.48 195.41 68.35 204.73 68.41 214.05 C 67.90 214.00 66.88 213.90 66.37 213.85 C 66.52 199.29 66.55 184.72 66.36 170.16 C 64.40 170.19 62.44 170.23 60.48 170.27 C 60.45 172.22 60.42 174.18 60.39 176.14 C 57.74 176.19 55.09 176.24 52.44 176.29 C 52.53 187.44 52.70 198.60 52.35 209.75 L 50.72 209.75 C 50.43 205.83 50.44 201.89 50.65 197.97 C 46.66 197.78 42.66 197.73 38.67 197.82 C 38.55 201.82 38.59 205.81 38.68 209.81 C 38.22 209.87 37.31 209.99 36.86 210.05 C 37.29 208.54 36.72 207.85 35.14 207.98 L 35.74 206.83 C 36.02 206.31 36.29 205.80 36.57 205.29 C 35.90 203.09 35.50 200.82 35.25 198.54 C 36.58 197.35 37.89 196.14 39.19 194.93 C 39.37 193.15 39.56 191.38 39.79 189.62 C 40.33 191.93 40.58 194.28 40.84 196.64 C 44.10 195.11 42.30 190.85 42.75 188.03 C 35.44 187.69 28.12 187.79 20.81 187.97 C 20.70 191.92 20.67 195.86 20.72 199.81 C 20.27 199.81 19.37 199.82 18.92 199.82 C 18.83 195.27 18.82 190.71 18.88 186.16 C 21.51 186.11 24.15 186.05 26.78 185.98 C 26.80 183.37 26.82 180.76 26.85 178.15 C 32.78 178.16 38.70 178.14 44.63 178.18 C 44.56 184.11 44.53 190.03 44.63 195.96 C 46.65 195.92 48.66 195.88 50.67 195.84 C 50.61 188.86 50.65 181.87 50.60 174.89 C 51.09 174.53 52.08 173.80 52.57 173.44 C 52.63 171.67 52.70 169.91 52.77 168.15 M 54.22 170.31 C 54.39 171.60 54.52 172.91 54.84 174.17 C 56.11 174.12 57.38 174.04 58.64 173.93 C 58.63 172.70 58.61 171.47 58.60 170.24 C 57.14 170.26 55.68 170.28 54.22 170.31 M 28.72 179.99 C 28.70 182.14 28.69 184.30 28.72 186.46 C 31.35 186.36 31.43 183.69 32.21 181.81 C 32.39 183.35 32.55 184.89 32.69 186.44 C 35.49 186.49 35.37 183.80 35.89 181.80 C 36.33 183.31 36.57 184.86 36.76 186.43 C 39.46 186.41 39.36 183.77 39.88 181.82 C 40.35 183.35 40.58 184.93 40.80 186.51 C 43.94 185.98 42.39 182.30 42.79 180.10 C 38.11 179.86 33.41 179.96 28.72 179.99 M 68.02 181.99 C 68.20 182.60 68.56 183.83 68.75 184.44 C 70.31 184.13 73.10 184.63 72.90 182.22 C 71.28 181.99 69.65 181.99 68.02 181.99 Z" />
<path fill="#8eced7" opacity="1.00" d=" M 102.28 181.00 C 102.69 181.00 103.49 181.00 103.89 181.00 C 104.25 182.99 103.66 185.66 105.93 186.66 C 106.32 185.03 106.71 183.42 107.04 181.78 C 107.50 183.76 107.74 186.14 110.21 186.52 C 110.34 185.10 110.47 183.67 110.59 182.25 C 110.75 182.26 111.07 182.27 111.23 182.28 C 111.60 184.08 111.78 186.17 113.96 186.61 C 114.33 185.03 114.70 183.46 115.02 181.87 C 115.50 183.76 115.83 185.95 117.96 186.68 C 118.07 184.78 118.15 182.89 118.22 181.00 C 118.65 181.00 119.50 181.01 119.93 181.01 C 119.88 185.98 119.89 190.95 120.03 195.92 C 121.38 195.91 122.73 195.90 124.08 195.89 C 124.12 190.93 124.12 185.97 124.09 181.00 C 124.54 181.00 125.44 181.00 125.89 181.00 C 125.92 187.58 125.69 194.16 126.14 200.73 C 125.98 200.94 125.66 201.36 125.50 201.57 C 125.20 201.61 124.61 201.69 124.32 201.73 C 124.20 200.43 124.09 199.14 123.98 197.85 C 120.67 197.80 117.37 197.79 114.07 197.85 C 114.05 200.85 114.10 203.85 114.18 206.85 C 114.10 207.09 113.95 207.58 113.87 207.82 C 112.81 207.84 111.76 207.89 110.71 207.97 C 112.96 203.75 109.93 198.17 114.15 194.83 C 114.48 193.09 114.81 191.36 115.16 189.63 C 115.42 191.93 115.62 194.23 115.83 196.54 C 119.86 195.80 117.67 190.74 118.19 187.87 C 110.85 187.77 103.52 187.71 96.19 187.99 C 96.14 195.25 96.29 202.51 96.07 209.77 C 95.64 209.77 94.77 209.77 94.34 209.78 C 94.32 201.90 94.36 194.02 94.28 186.15 C 96.93 186.12 99.58 186.09 102.22 186.06 C 102.24 184.37 102.26 182.69 102.28 181.00 Z" />
</g>
<g id="#a8ded0ff">
<path fill="#a8ded0" opacity="1.00" d=" M 201.36 168.10 C 206.66 168.04 211.96 168.05 217.26 168.05 C 217.32 171.98 217.32 175.91 217.28 179.85 C 219.22 179.91 221.17 179.98 223.12 180.05 C 223.19 181.33 223.25 182.60 223.32 183.88 C 226.60 183.94 229.88 183.98 233.16 184.00 C 233.11 193.89 233.43 203.80 233.00 213.68 C 232.51 213.90 231.54 214.34 231.06 214.56 C 230.88 205.11 230.96 195.65 230.95 186.20 C 226.40 186.18 221.85 186.19 217.31 186.23 C 217.39 195.46 217.42 204.70 217.27 213.94 C 216.72 213.89 215.62 213.81 215.07 213.77 C 214.93 199.27 215.25 184.77 214.93 170.27 C 213.11 170.28 211.28 170.29 209.46 170.29 C 209.43 172.26 209.39 174.23 209.36 176.20 C 206.72 176.27 204.07 176.33 201.43 176.40 C 201.48 187.52 201.69 198.65 201.34 209.76 C 200.78 209.76 199.68 209.75 199.13 209.75 C 198.05 205.91 198.90 201.97 199.41 198.12 C 195.41 198.09 191.42 198.13 187.43 198.25 C 187.53 202.28 187.40 206.31 187.38 210.34 C 186.38 209.27 185.37 208.23 184.30 207.24 C 184.46 206.73 184.78 205.73 184.94 205.22 C 184.37 203.25 182.98 201.23 183.75 199.12 C 184.74 197.63 186.04 196.39 187.25 195.09 C 187.56 193.11 187.80 191.06 188.91 189.34 C 189.19 191.47 189.37 193.62 189.53 195.77 C 190.01 195.77 190.99 195.77 191.48 195.76 C 191.49 193.27 191.50 190.77 191.52 188.27 C 184.31 188.26 177.10 188.26 169.90 188.23 C 169.79 192.11 169.79 195.99 169.89 199.87 C 169.36 199.88 168.29 199.88 167.76 199.88 C 167.57 195.27 167.55 190.64 167.66 186.02 C 170.31 185.95 172.96 185.88 175.61 185.80 C 175.59 183.20 175.59 180.59 175.58 177.99 C 181.53 177.99 187.48 177.99 193.42 177.99 C 193.56 183.93 193.51 189.87 193.42 195.82 C 195.43 195.80 197.44 195.79 199.46 195.78 C 199.32 188.88 199.34 181.98 199.40 175.08 C 199.86 174.54 200.79 173.46 201.26 172.92 C 201.29 171.31 201.32 169.71 201.36 168.10 M 203.45 170.34 C 203.41 171.47 203.38 172.59 203.35 173.72 C 204.60 173.77 205.86 173.83 207.11 173.89 C 207.06 172.67 207.02 171.46 206.97 170.24 C 205.79 170.27 204.62 170.31 203.45 170.34 M 177.91 180.27 C 177.87 182.27 177.85 184.27 177.89 186.28 C 180.21 185.83 179.53 183.20 180.07 181.54 C 181.66 182.36 181.26 184.31 181.65 185.75 C 182.12 185.74 183.06 185.73 183.52 185.73 C 183.61 184.36 183.71 182.99 183.82 181.63 C 185.81 182.04 185.17 184.34 185.65 185.76 C 186.09 185.74 186.96 185.69 187.40 185.67 C 187.83 184.28 187.30 182.18 189.15 181.66 C 189.26 183.02 189.36 184.38 189.46 185.75 C 189.97 185.74 190.99 185.71 191.50 185.70 C 191.49 183.91 191.49 182.13 191.49 180.34 C 186.96 180.30 182.43 180.32 177.91 180.27 M 216.85 183.74 C 218.25 183.85 219.66 183.95 221.07 184.04 C 221.05 183.51 221.02 182.44 221.00 181.90 C 219.50 182.27 217.24 181.72 216.85 183.74 Z" />
</g>
<g id="#ecf9ceff">
<path fill="#ecf9ce" opacity="1.00" d=" M 54.22 170.31 C 55.68 170.28 57.14 170.26 58.60 170.24 C 58.61 171.47 58.63 172.70 58.64 173.93 C 57.38 174.04 56.11 174.12 54.84 174.17 C 54.52 172.91 54.39 171.60 54.22 170.31 Z" />
</g>
<g id="#ebf7cfff">
<path fill="#ebf7cf" opacity="1.00" d=" M 60.48 170.27 C 62.44 170.23 64.40 170.19 66.36 170.16 C 66.55 184.72 66.52 199.29 66.37 213.85 L 65.06 213.70 C 64.55 212.64 64.08 211.57 63.60 210.50 C 63.01 211.08 62.41 211.66 61.82 212.24 C 61.15 211.41 60.50 210.58 59.85 209.75 C 57.35 209.74 54.85 209.75 52.35 209.75 C 52.70 198.60 52.53 187.44 52.44 176.29 C 55.09 176.24 57.74 176.19 60.39 176.14 C 60.42 174.18 60.45 172.22 60.48 170.27 M 55.33 178.63 C 54.49 179.87 54.24 182.75 55.71 183.44 C 56.50 182.20 56.85 179.25 55.33 178.63 M 59.29 178.63 C 58.43 179.99 58.45 182.06 59.31 183.43 C 60.75 182.92 60.77 179.11 59.29 178.63 M 63.32 178.54 C 62.44 179.92 62.45 182.02 63.32 183.41 C 64.75 182.87 64.72 179.11 63.32 178.54 M 55.31 186.57 C 54.48 187.97 54.48 190.04 55.38 191.41 C 56.81 190.84 56.76 187.06 55.31 186.57 M 59.33 186.55 C 58.47 187.95 58.48 190.03 59.32 191.45 C 60.77 190.93 60.75 187.12 59.33 186.55 M 63.34 186.57 C 62.47 187.96 62.44 190.05 63.28 191.47 C 64.72 190.92 64.76 187.16 63.34 186.57 M 55.35 194.59 C 54.50 195.96 54.44 198.05 55.33 199.43 C 56.75 198.86 56.80 195.09 55.35 194.59 M 59.36 194.53 C 58.49 195.91 58.44 198.01 59.32 199.41 C 60.76 198.88 60.75 195.12 59.36 194.53 M 63.32 194.54 C 62.51 195.80 62.23 198.72 63.71 199.41 C 64.49 198.13 64.81 195.20 63.32 194.54 M 55.33 202.57 C 54.45 203.91 54.45 206.00 55.34 207.35 C 56.79 206.87 56.76 203.05 55.33 202.57 M 59.36 202.56 C 58.47 203.91 58.45 206.01 59.36 207.36 C 60.79 206.85 60.77 203.06 59.36 202.56 M 63.30 202.55 C 62.44 203.92 62.45 206.00 63.35 207.36 C 64.78 206.85 64.73 203.02 63.30 202.55 Z" />
</g>
<g id="#ebf9ceff">
<path fill="#ebf9ce" opacity="1.00" d=" M 203.45 170.34 C 204.62 170.31 205.79 170.27 206.97 170.24 C 207.02 171.46 207.06 172.67 207.11 173.89 C 205.86 173.83 204.60 173.77 203.35 173.72 C 203.38 172.59 203.41 171.47 203.45 170.34 Z" />
</g>
<g id="#eaf7cfff">
<path fill="#eaf7cf" opacity="1.00" d=" M 209.46 170.29 C 211.28 170.29 213.11 170.28 214.93 170.27 C 215.25 184.77 214.93 199.27 215.07 213.77 C 214.69 213.73 213.93 213.65 213.55 213.61 C 213.24 212.68 212.95 211.74 212.67 210.81 C 211.07 211.82 209.31 212.07 208.53 209.86 C 206.13 209.77 203.73 209.76 201.34 209.76 C 201.69 198.65 201.48 187.52 201.43 176.40 C 204.07 176.33 206.72 176.27 209.36 176.20 C 209.39 174.23 209.43 172.26 209.46 170.29 M 211.03 171.90 C 211.49 173.26 210.51 177.57 213.16 176.23 C 213.52 174.32 213.96 171.31 211.03 171.90 M 203.43 178.45 C 203.29 180.62 202.19 184.18 205.32 184.64 C 205.39 182.29 205.38 179.94 205.25 177.59 C 204.80 177.80 203.88 178.23 203.43 178.45 M 207.34 178.25 C 207.33 180.10 205.94 185.01 209.21 184.16 C 209.58 182.09 209.55 179.95 209.15 177.88 C 208.70 177.97 207.80 178.16 207.34 178.25 M 211.30 178.31 C 211.21 180.52 209.99 184.34 213.34 184.49 C 213.39 182.16 213.37 179.84 213.27 177.52 C 212.77 177.71 211.79 178.11 211.30 178.31 M 203.51 186.35 C 203.20 188.01 202.35 193.08 205.07 192.04 C 205.36 190.05 206.56 185.91 203.78 185.52 L 203.51 186.35 M 207.26 186.16 C 207.47 188.15 205.87 192.55 209.17 192.22 C 209.53 190.10 209.55 187.93 209.16 185.81 C 208.69 185.90 207.73 186.08 207.26 186.16 M 211.31 186.33 C 211.24 188.49 210.01 192.25 213.24 192.46 C 213.34 190.11 213.37 187.77 213.30 185.42 C 212.80 185.65 211.81 186.10 211.31 186.33 M 203.72 200.78 C 204.12 200.35 204.94 199.47 205.34 199.04 C 205.24 197.36 206.56 193.45 203.92 193.58 C 202.42 195.63 203.56 198.45 203.72 200.78 M 209.25 200.53 C 209.38 198.29 209.51 196.03 209.21 193.80 L 207.91 193.63 C 206.85 195.65 206.08 200.02 209.25 200.53 M 211.34 194.28 C 211.27 196.45 210.07 200.14 213.27 200.48 C 213.34 198.12 213.31 195.77 213.20 193.42 C 212.73 193.64 211.81 194.06 211.34 194.28 M 203.25 208.03 C 206.85 208.26 205.03 203.56 205.28 201.41 C 201.88 201.78 203.65 205.76 203.25 208.03 M 207.14 208.04 C 210.63 208.41 209.27 203.89 209.22 201.76 C 205.89 200.99 207.59 206.10 207.14 208.04 M 213.27 208.44 C 212.87 206.32 214.71 202.05 211.88 201.51 C 210.84 203.56 209.97 208.12 213.27 208.44 Z" />
<path fill="#eaf7cf" opacity="1.00" d=" M 169.90 188.23 C 177.10 188.26 184.31 188.26 191.52 188.27 C 191.50 190.77 191.49 193.27 191.48 195.76 C 190.99 195.77 190.01 195.77 189.53 195.77 C 189.37 193.62 189.19 191.47 188.91 189.34 C 187.80 191.06 187.56 193.11 187.25 195.09 C 186.04 196.39 184.74 197.63 183.75 199.12 C 182.98 201.23 184.37 203.25 184.94 205.22 C 184.78 205.73 184.46 206.73 184.30 207.24 C 183.99 206.96 183.36 206.42 183.04 206.14 L 182.22 205.83 C 181.97 205.42 181.48 204.61 181.23 204.20 C 180.09 202.72 178.34 201.95 176.78 201.01 C 177.02 200.13 177.25 199.25 177.49 198.37 C 177.34 198.36 177.06 198.35 176.92 198.34 C 176.74 200.26 175.98 201.84 174.03 202.47 C 173.71 201.22 173.42 199.99 173.12 198.75 C 172.05 199.15 170.98 199.53 169.89 199.87 C 169.79 195.99 169.79 192.11 169.90 188.23 M 171.80 189.87 C 171.44 192.06 171.61 194.30 171.76 196.51 C 172.21 196.28 173.13 195.81 173.59 195.58 C 173.69 193.81 174.76 189.06 171.80 189.87 M 175.83 189.76 C 175.41 191.98 175.60 194.25 175.76 196.48 C 177.81 196.31 177.95 194.58 177.80 192.94 C 177.67 191.76 178.01 188.90 175.83 189.76 M 180.30 190.55 C 179.53 191.83 179.20 194.73 180.71 195.41 C 181.53 194.15 181.77 191.21 180.30 190.55 M 184.30 190.56 C 183.45 191.93 183.41 194.01 184.30 195.38 C 185.75 194.85 185.75 191.05 184.30 190.56 Z" />
</g>
<g id="#ddf3d0ff">
<path fill="#ddf3d0" opacity="1.00" d=" M 139.34 172.21 L 140.01 171.69 C 139.53 181.85 140.14 192.02 139.58 202.17 C 137.69 201.94 135.80 201.86 133.91 201.76 C 133.52 199.12 133.21 196.48 132.95 193.82 C 132.82 195.97 132.68 198.11 132.53 200.25 C 131.80 200.10 130.34 199.81 129.61 199.66 C 129.17 197.75 129.10 195.79 128.96 193.85 C 128.69 196.41 129.43 199.89 126.14 200.73 C 125.69 194.16 125.92 187.58 125.89 181.00 C 126.55 181.00 127.88 181.00 128.54 181.00 C 128.78 181.92 128.76 182.96 129.26 183.81 C 129.26 183.11 129.25 181.70 129.25 180.99 C 130.17 180.99 131.99 181.00 132.90 181.00 C 132.86 181.95 132.82 182.89 132.77 183.84 C 133.32 182.24 133.23 179.97 135.99 180.21 C 136.18 181.50 136.38 182.78 136.59 184.07 C 137.28 182.93 137.88 181.75 138.49 180.56 L 139.25 180.71 C 139.22 177.88 139.21 175.04 139.34 172.21 M 128.06 185.71 C 128.03 187.90 128.03 190.09 128.09 192.28 C 128.51 192.09 129.34 191.73 129.76 191.55 C 129.87 189.54 131.00 185.99 128.06 185.71 M 132.00 185.70 C 132.41 187.83 130.62 191.93 133.84 192.18 C 133.46 190.00 135.22 186.12 132.00 185.70 M 135.99 185.66 C 136.32 187.80 134.45 192.07 137.85 192.12 C 137.42 189.97 139.08 186.17 135.99 185.66 M 135.90 194.02 C 136.22 196.06 134.75 199.67 137.71 200.10 C 137.76 198.09 137.80 196.08 137.82 194.07 C 137.34 194.06 136.38 194.03 135.90 194.02 Z" />
<path fill="#ddf3d0" opacity="1.00" d=" M 20.81 187.97 C 28.12 187.79 35.44 187.69 42.75 188.03 C 42.30 190.85 44.10 195.11 40.84 196.64 C 40.58 194.28 40.33 191.93 39.79 189.62 C 39.56 191.38 39.37 193.15 39.19 194.93 C 37.89 196.14 36.58 197.35 35.25 198.54 C 35.50 200.82 35.90 203.09 36.57 205.29 C 36.29 205.80 36.02 206.31 35.74 206.83 C 35.25 206.66 34.27 206.32 33.79 206.15 L 32.89 205.99 C 32.89 205.37 32.88 204.13 32.88 203.52 C 32.83 201.48 32.92 199.34 31.99 197.46 C 31.01 198.95 30.40 200.63 29.80 202.30 L 28.58 201.35 C 28.36 200.20 28.17 199.05 28.00 197.90 C 27.63 199.46 28.22 201.90 26.01 202.07 C 25.28 201.32 24.57 200.56 23.89 199.78 C 23.10 199.79 21.52 199.80 20.72 199.81 C 20.67 195.86 20.70 191.92 20.81 187.97 M 22.86 189.65 C 23.11 191.79 21.43 196.08 24.80 196.13 C 24.40 193.94 26.02 190.17 22.86 189.65 M 26.85 189.66 C 26.98 191.84 25.57 195.79 28.78 196.21 C 28.35 194.02 30.03 190.15 26.85 189.66 M 30.85 189.63 C 30.72 191.88 30.76 194.13 30.95 196.37 C 31.35 196.16 32.15 195.74 32.55 195.53 C 32.66 193.50 33.85 189.95 30.85 189.63 M 34.85 189.64 C 34.73 191.88 34.73 194.12 34.89 196.36 C 37.38 195.28 37.93 190.17 34.85 189.64 Z" />
</g>
<g id="#9bd5d6ff">
<path fill="#9bd5d6" opacity="1.00" d=" M 140.01 171.69 C 140.48 171.72 141.41 171.78 141.88 171.81 C 141.87 174.51 141.87 177.21 141.88 179.92 C 143.83 179.98 145.78 180.05 147.74 180.11 C 147.81 181.38 147.87 182.66 147.94 183.93 C 151.21 183.95 154.47 183.99 157.74 184.05 C 157.74 189.96 157.71 195.87 157.73 201.79 C 157.24 201.86 156.25 202.00 155.76 202.08 C 155.75 196.77 155.65 191.47 155.75 186.17 C 151.16 186.08 146.56 186.07 141.97 186.13 C 141.85 192.06 141.89 197.99 141.88 203.92 C 141.10 203.36 140.33 202.77 139.58 202.17 C 140.14 192.02 139.53 181.85 140.01 171.69 M 141.89 181.99 C 141.91 182.54 141.93 183.63 141.95 184.17 C 143.57 183.89 145.93 184.46 146.25 182.23 C 144.80 182.14 143.34 182.06 141.89 181.99 Z" />
</g>
<g id="#b7e8ccff">
<path fill="#b7e8cc" opacity="1.00" d=" M 211.03 171.90 C 213.96 171.31 213.52 174.32 213.16 176.23 C 210.51 177.57 211.49 173.26 211.03 171.90 Z" />
<path fill="#b7e8cc" opacity="1.00" d=" M 203.43 178.45 C 203.88 178.23 204.80 177.80 205.25 177.59 C 205.38 179.94 205.39 182.29 205.32 184.64 C 202.19 184.18 203.29 180.62 203.43 178.45 Z" />
<path fill="#b7e8cc" opacity="1.00" d=" M 207.34 178.25 C 207.80 178.16 208.70 177.97 209.15 177.88 C 209.55 179.95 209.58 182.09 209.21 184.16 C 205.94 185.01 207.33 180.10 207.34 178.25 Z" />
<path fill="#b7e8cc" opacity="1.00" d=" M 211.30 178.31 C 211.79 178.11 212.77 177.71 213.27 177.52 C 213.37 179.84 213.39 182.16 213.34 184.49 C 209.99 184.34 211.21 180.52 211.30 178.31 Z" />
<path fill="#b7e8cc" opacity="1.00" d=" M 171.80 189.87 C 174.76 189.06 173.69 193.81 173.59 195.58 C 173.13 195.81 172.21 196.28 171.76 196.51 C 171.61 194.30 171.44 192.06 171.80 189.87 Z" />
<path fill="#b7e8cc" opacity="1.00" d=" M 175.83 189.76 C 178.01 188.90 177.67 191.76 177.80 192.94 C 177.95 194.58 177.81 196.31 175.76 196.48 C 175.60 194.25 175.41 191.98 175.83 189.76 Z" />
<path fill="#b7e8cc" opacity="1.00" d=" M 203.72 200.78 C 203.56 198.45 202.42 195.63 203.92 193.58 C 206.56 193.45 205.24 197.36 205.34 199.04 C 204.94 199.47 204.12 200.35 203.72 200.78 Z" />
<path fill="#b7e8cc" opacity="1.00" d=" M 40.79 201.42 C 43.66 202.05 43.81 207.74 40.88 208.34 C 40.69 206.04 40.65 203.72 40.79 201.42 Z" />
<path fill="#b7e8cc" opacity="1.00" d=" M 203.25 208.03 C 203.65 205.76 201.88 201.78 205.28 201.41 C 205.03 203.56 206.85 208.26 203.25 208.03 Z" />
<path fill="#b7e8cc" opacity="1.00" d=" M 207.14 208.04 C 207.59 206.10 205.89 200.99 209.22 201.76 C 209.27 203.89 210.63 208.41 207.14 208.04 Z" />
<path fill="#b7e8cc" opacity="1.00" d=" M 213.27 208.44 C 209.97 208.12 210.84 203.56 211.88 201.51 C 214.71 202.05 212.87 206.32 213.27 208.44 Z" />
</g>
<g id="#a7e3cbff">
<path fill="#a7e3cb" opacity="1.00" d=" M 55.33 178.63 C 56.85 179.25 56.50 182.20 55.71 183.44 C 54.24 182.75 54.49 179.87 55.33 178.63 Z" />
<path fill="#a7e3cb" opacity="1.00" d=" M 59.29 178.63 C 60.77 179.11 60.75 182.92 59.31 183.43 C 58.45 182.06 58.43 179.99 59.29 178.63 Z" />
<path fill="#a7e3cb" opacity="1.00" d=" M 63.32 178.54 C 64.72 179.11 64.75 182.87 63.32 183.41 C 62.45 182.02 62.44 179.92 63.32 178.54 Z" />
<path fill="#a7e3cb" opacity="1.00" d=" M 55.31 186.57 C 56.76 187.06 56.81 190.84 55.38 191.41 C 54.48 190.04 54.48 187.97 55.31 186.57 Z" />
<path fill="#a7e3cb" opacity="1.00" d=" M 59.33 186.55 C 60.75 187.12 60.77 190.93 59.32 191.45 C 58.48 190.03 58.47 187.95 59.33 186.55 Z" />
<path fill="#a7e3cb" opacity="1.00" d=" M 63.34 186.57 C 64.76 187.16 64.72 190.92 63.28 191.47 C 62.44 190.05 62.47 187.96 63.34 186.57 Z" />
<path fill="#a7e3cb" opacity="1.00" d=" M 180.30 190.55 C 181.77 191.21 181.53 194.15 180.71 195.41 C 179.20 194.73 179.53 191.83 180.30 190.55 Z" />
<path fill="#a7e3cb" opacity="1.00" d=" M 184.30 190.56 C 185.75 191.05 185.75 194.85 184.30 195.38 C 183.41 194.01 183.45 191.93 184.30 190.56 Z" />
<path fill="#a7e3cb" opacity="1.00" d=" M 55.35 194.59 C 56.80 195.09 56.75 198.86 55.33 199.43 C 54.44 198.05 54.50 195.96 55.35 194.59 Z" />
<path fill="#a7e3cb" opacity="1.00" d=" M 59.36 194.53 C 60.75 195.12 60.76 198.88 59.32 199.41 C 58.44 198.01 58.49 195.91 59.36 194.53 Z" />
<path fill="#a7e3cb" opacity="1.00" d=" M 63.32 194.54 C 64.81 195.20 64.49 198.13 63.71 199.41 C 62.23 198.72 62.51 195.80 63.32 194.54 Z" />
<path fill="#a7e3cb" opacity="1.00" d=" M 55.33 202.57 C 56.76 203.05 56.79 206.87 55.34 207.35 C 54.45 206.00 54.45 203.91 55.33 202.57 Z" />
<path fill="#a7e3cb" opacity="1.00" d=" M 59.36 202.56 C 60.77 203.06 60.79 206.85 59.36 207.36 C 58.45 206.01 58.47 203.91 59.36 202.56 Z" />
<path fill="#a7e3cb" opacity="1.00" d=" M 63.30 202.55 C 64.73 203.02 64.78 206.85 63.35 207.36 C 62.45 206.00 62.44 203.92 63.30 202.55 Z" />
<path fill="#a7e3cb" opacity="1.00" d=" M 190.34 202.53 C 191.74 203.10 191.76 206.81 190.33 207.36 C 189.43 206.00 189.45 203.89 190.34 202.53 Z" />
<path fill="#a7e3cb" opacity="1.00" d=" M 194.31 202.54 C 195.73 203.09 195.74 206.86 194.29 207.36 C 193.41 205.99 193.41 203.90 194.31 202.54 Z" />
</g>
<g id="#dcf3cfff">
<path fill="#dcf3cf" opacity="1.00" d=" M 28.72 179.99 C 33.41 179.96 38.11 179.86 42.79 180.10 C 42.39 182.30 43.94 185.98 40.80 186.51 C 40.58 184.93 40.35 183.35 39.88 181.82 C 39.36 183.77 39.46 186.41 36.76 186.43 C 36.57 184.86 36.33 183.31 35.89 181.80 C 35.37 183.80 35.49 186.49 32.69 186.44 C 32.55 184.89 32.39 183.35 32.21 181.81 C 31.43 183.69 31.35 186.36 28.72 186.46 C 28.69 184.30 28.70 182.14 28.72 179.99 Z" />
</g>
<g id="#dff4cfff">
<path fill="#dff4cf" opacity="1.00" d=" M 103.89 181.00 C 108.66 180.99 113.44 180.99 118.22 181.00 C 118.15 182.89 118.07 184.78 117.96 186.68 C 115.83 185.95 115.50 183.76 115.02 181.87 C 114.70 183.46 114.33 185.03 113.96 186.61 C 111.78 186.17 111.60 184.08 111.23 182.28 C 111.07 182.27 110.75 182.26 110.59 182.25 C 110.47 183.67 110.34 185.10 110.21 186.52 C 107.74 186.14 107.50 183.76 107.04 181.78 C 106.71 183.42 106.32 185.03 105.93 186.66 C 103.66 185.66 104.25 182.99 103.89 181.00 Z" />
<path fill="#dff4cf" opacity="1.00" d=" M 141.97 186.13 C 146.56 186.07 151.16 186.08 155.75 186.17 C 155.65 191.47 155.75 196.77 155.76 202.08 C 155.74 202.49 155.71 203.32 155.69 203.73 C 154.28 203.86 152.86 203.98 151.45 204.07 C 151.25 202.67 151.05 201.27 150.87 199.87 C 150.86 202.56 150.55 205.23 149.89 207.84 C 148.40 207.83 146.92 207.81 145.43 207.79 C 148.01 205.76 147.31 202.64 147.08 199.79 C 146.76 201.47 146.49 203.16 145.94 204.79 C 144.82 206.65 143.17 204.45 141.88 203.92 C 141.89 197.99 141.85 192.06 141.97 186.13 M 145.81 191.64 C 145.76 193.86 145.80 196.09 145.92 198.32 C 146.37 198.12 147.25 197.70 147.70 197.50 C 147.79 195.43 148.84 191.93 145.81 191.64 M 149.87 191.56 C 149.77 193.82 149.77 196.09 149.85 198.36 C 150.32 198.15 151.24 197.75 151.71 197.54 C 151.79 195.45 152.92 191.89 149.87 191.56 Z" />
<path fill="#dff4cf" opacity="1.00" d=" M 217.31 186.23 C 221.85 186.19 226.40 186.18 230.95 186.20 C 230.96 195.65 230.88 205.11 231.06 214.56 C 231.02 214.87 230.94 215.48 230.90 215.79 C 226.35 215.75 221.80 215.75 217.25 215.77 C 217.26 215.31 217.27 214.39 217.27 213.94 C 217.42 204.70 217.39 195.46 217.31 186.23 M 221.17 198.10 C 224.63 198.13 222.94 193.73 223.08 191.58 C 219.88 192.08 221.55 195.89 221.17 198.10 M 225.16 192.05 C 225.18 194.06 225.20 196.07 225.24 198.08 C 228.52 198.14 226.91 193.96 227.15 191.91 C 226.65 191.95 225.66 192.02 225.16 192.05 M 221.35 200.39 C 221.22 202.44 220.09 206.02 223.15 206.27 C 223.25 204.00 223.23 201.72 223.07 199.46 C 222.64 199.69 221.78 200.16 221.35 200.39 M 225.24 206.14 C 228.38 205.93 227.29 202.01 227.07 199.92 C 223.71 199.56 225.74 204.12 225.24 206.14 M 221.28 208.16 C 221.04 210.16 221.15 212.18 221.22 214.19 C 222.72 213.75 223.75 212.65 223.40 211.00 C 223.46 209.68 223.31 206.44 221.28 208.16 M 225.31 214.15 C 228.37 213.48 227.23 210.11 227.04 207.86 C 223.58 207.38 225.74 212.09 225.31 214.15 Z" />
</g>
<g id="#d4efd0ff">
<path fill="#d4efd0" opacity="1.00" d=" M 68.02 181.99 C 69.65 181.99 71.28 181.99 72.90 182.22 C 73.10 184.63 70.31 184.13 68.75 184.44 C 68.56 183.83 68.20 182.60 68.02 181.99 Z" />
</g>
<g id="#ddf3cfff">
<path fill="#ddf3cf" opacity="1.00" d=" M 141.89 181.99 C 143.34 182.06 144.80 182.14 146.25 182.23 C 145.93 184.46 143.57 183.89 141.95 184.17 C 141.93 183.63 141.91 182.54 141.89 181.99 Z" />
<path fill="#ddf3cf" opacity="1.00" d=" M 216.85 183.74 C 217.24 181.72 219.50 182.27 221.00 181.90 C 221.02 182.44 221.05 183.51 221.07 184.04 C 219.66 183.95 218.25 183.85 216.85 183.74 Z" />
<path fill="#ddf3cf" opacity="1.00" d=" M 0.00 183.87 C 3.02 183.88 6.04 183.90 9.05 183.93 C 9.25 189.87 9.04 195.81 9.04 201.76 C 8.76 201.77 8.19 201.79 7.91 201.81 C 6.67 203.32 4.96 204.07 3.04 204.29 C 1.98 205.63 0.94 207.00 0.00 208.44 L 0.00 183.87 M 1.08 191.65 C 1.15 193.84 -0.41 197.90 2.95 198.18 C 2.57 195.99 4.39 191.93 1.08 191.65 Z" />
</g>
<g id="#e2f5cfff">
<path fill="#e2f5cf" opacity="1.00" d=" M 68.35 186.09 C 73.01 185.82 77.67 185.87 82.33 186.10 C 82.46 195.43 82.47 204.76 82.36 214.09 C 82.32 214.52 82.23 215.36 82.19 215.78 C 77.63 215.70 73.07 215.83 68.51 215.71 C 68.48 215.29 68.44 214.46 68.41 214.05 C 68.35 204.73 68.48 195.41 68.35 186.09 M 73.34 192.57 C 72.43 193.91 72.41 196.01 73.29 197.37 C 74.75 196.89 74.74 193.15 73.34 192.57 M 77.30 192.53 C 76.44 193.91 76.37 196.01 77.28 197.38 C 78.73 196.84 78.69 193.09 77.30 192.53 M 73.27 200.56 C 72.39 201.92 72.42 204.02 73.30 205.38 C 74.74 204.86 74.70 201.11 73.27 200.56 M 77.29 200.58 C 76.40 201.92 76.38 204.01 77.28 205.36 C 78.71 204.84 78.73 201.08 77.29 200.58 M 73.30 208.56 C 72.46 209.79 72.18 212.73 73.69 213.37 C 74.46 212.11 74.80 209.18 73.30 208.56 M 77.32 208.54 C 76.42 209.87 76.34 211.97 77.26 213.31 C 78.73 212.81 78.71 209.08 77.32 208.54 Z" />
<path fill="#e2f5cf" opacity="1.00" d=" M 187.43 198.25 C 191.42 198.13 195.41 198.09 199.41 198.12 C 198.90 201.97 198.05 205.91 199.13 209.75 C 196.19 209.74 193.26 209.78 190.34 209.88 C 189.89 210.26 189.01 211.02 188.57 211.40 L 187.79 211.88 C 187.69 211.49 187.48 210.72 187.38 210.34 C 187.40 206.31 187.53 202.28 187.43 198.25 M 190.34 202.53 C 189.45 203.89 189.43 206.00 190.33 207.36 C 191.76 206.81 191.74 203.10 190.34 202.53 M 194.31 202.54 C 193.41 203.90 193.41 205.99 194.29 207.36 C 195.74 206.86 195.73 203.09 194.31 202.54 Z" />
</g>
<g id="#b4e7ccff">
<path fill="#b4e7cc" opacity="1.00" d=" M 128.06 185.71 C 131.00 185.99 129.87 189.54 129.76 191.55 C 129.34 191.73 128.51 192.09 128.09 192.28 C 128.03 190.09 128.03 187.90 128.06 185.71 Z" />
<path fill="#b4e7cc" opacity="1.00" d=" M 132.00 185.70 C 135.22 186.12 133.46 190.00 133.84 192.18 C 130.62 191.93 132.41 187.83 132.00 185.70 Z" />
<path fill="#b4e7cc" opacity="1.00" d=" M 1.08 191.65 C 4.39 191.93 2.57 195.99 2.95 198.18 C -0.41 197.90 1.15 193.84 1.08 191.65 Z" />
</g>
<g id="#b5e7ccff">
<path fill="#b5e7cc" opacity="1.00" d=" M 135.99 185.66 C 139.08 186.17 137.42 189.97 137.85 192.12 C 134.45 192.07 136.32 187.80 135.99 185.66 Z" />
<path fill="#b5e7cc" opacity="1.00" d=" M 34.85 189.64 C 37.93 190.17 37.38 195.28 34.89 196.36 C 34.73 194.12 34.73 191.88 34.85 189.64 Z" />
<path fill="#b5e7cc" opacity="1.00" d=" M 107.92 196.32 C 105.32 195.56 105.36 190.45 107.97 189.70 C 108.02 191.91 108.00 194.11 107.92 196.32 Z" />
<path fill="#b5e7cc" opacity="1.00" d=" M 110.15 195.90 C 110.59 193.86 109.04 190.33 111.90 189.78 C 111.97 191.52 112.01 193.27 112.05 195.02 C 111.58 195.24 110.63 195.68 110.15 195.90 Z" />
<path fill="#b5e7cc" opacity="1.00" d=" M 247.24 196.17 C 247.60 194.05 245.89 190.30 248.92 189.77 C 248.48 191.84 250.07 195.50 247.24 196.17 Z" />
<path fill="#b5e7cc" opacity="1.00" d=" M 135.90 194.02 C 136.38 194.03 137.34 194.06 137.82 194.07 C 137.80 196.08 137.76 198.09 137.71 200.10 C 134.75 199.67 136.22 196.06 135.90 194.02 Z" />
<path fill="#b5e7cc" opacity="1.00" d=" M 247.14 204.12 C 247.56 202.02 245.87 198.23 248.87 197.74 C 248.45 199.83 250.22 203.70 247.14 204.12 Z" />
</g>
<g id="#b6e8ccff">
<path fill="#b6e8cc" opacity="1.00" d=" M 203.51 186.35 L 203.78 185.52 C 206.56 185.91 205.36 190.05 205.07 192.04 C 202.35 193.08 203.20 188.01 203.51 186.35 Z" />
<path fill="#b6e8cc" opacity="1.00" d=" M 149.87 191.56 C 152.92 191.89 151.79 195.45 151.71 197.54 C 151.24 197.75 150.32 198.15 149.85 198.36 C 149.77 196.09 149.77 193.82 149.87 191.56 Z" />
<path fill="#b6e8cc" opacity="1.00" d=" M 221.17 198.10 C 221.55 195.89 219.88 192.08 223.08 191.58 C 222.94 193.73 224.63 198.13 221.17 198.10 Z" />
<path fill="#b6e8cc" opacity="1.00" d=" M 209.25 200.53 C 206.08 200.02 206.85 195.65 207.91 193.63 L 209.21 193.80 C 209.51 196.03 209.38 198.29 209.25 200.53 Z" />
<path fill="#b6e8cc" opacity="1.00" d=" M 211.34 194.28 C 211.81 194.06 212.73 193.64 213.20 193.42 C 213.31 195.77 213.34 198.12 213.27 200.48 C 210.07 200.14 211.27 196.45 211.34 194.28 Z" />
<path fill="#b6e8cc" opacity="1.00" d=" M 98.29 204.05 C 98.68 201.94 97.05 198.26 100.02 197.67 C 99.86 199.79 101.44 203.57 98.29 204.05 Z" />
<path fill="#b6e8cc" opacity="1.00" d=" M 221.35 200.39 C 221.78 200.16 222.64 199.69 223.07 199.46 C 223.23 201.72 223.25 204.00 223.15 206.27 C 220.09 206.02 221.22 202.44 221.35 200.39 Z" />
<path fill="#b6e8cc" opacity="1.00" d=" M 221.28 208.16 C 223.31 206.44 223.46 209.68 223.40 211.00 C 223.75 212.65 222.72 213.75 221.22 214.19 C 221.15 212.18 221.04 210.16 221.28 208.16 Z" />
</g>
<g id="#b6e7ccff">
<path fill="#b6e7cc" opacity="1.00" d=" M 207.26 186.16 C 207.73 186.08 208.69 185.90 209.16 185.81 C 209.55 187.93 209.53 190.10 209.17 192.22 C 205.87 192.55 207.47 188.15 207.26 186.16 Z" />
<path fill="#b6e7cc" opacity="1.00" d=" M 26.85 189.66 C 30.03 190.15 28.35 194.02 28.78 196.21 C 25.57 195.79 26.98 191.84 26.85 189.66 Z" />
<path fill="#b6e7cc" opacity="1.00" d=" M 30.85 189.63 C 33.85 189.95 32.66 193.50 32.55 195.53 C 32.15 195.74 31.35 196.16 30.95 196.37 C 30.76 194.13 30.72 191.88 30.85 189.63 Z" />
<path fill="#b6e7cc" opacity="1.00" d=" M 99.98 196.33 C 97.39 195.55 97.27 190.21 100.09 189.78 C 100.17 191.96 100.13 194.14 99.98 196.33 Z" />
<path fill="#b6e7cc" opacity="1.00" d=" M 106.37 204.20 C 106.67 202.01 104.99 198.31 108.04 197.63 C 107.84 199.84 109.20 203.25 106.37 204.20 Z" />
</g>
<g id="#b7e7ccff">
<path fill="#b7e7cc" opacity="1.00" d=" M 211.31 186.33 C 211.81 186.10 212.80 185.65 213.30 185.42 C 213.37 187.77 213.34 190.11 213.24 192.46 C 210.01 192.25 211.24 188.49 211.31 186.33 Z" />
</g>
<g id="#d7f1d0ff">
<path fill="#d7f1d0" opacity="1.00" d=" M 242.95 185.90 C 245.29 185.88 247.65 185.86 250.00 185.85 L 250.00 209.78 C 247.66 209.71 245.32 209.61 242.98 209.60 C 242.84 201.70 242.84 193.80 242.95 185.90 M 247.24 196.17 C 250.07 195.50 248.48 191.84 248.92 189.77 C 245.89 190.30 247.60 194.05 247.24 196.17 M 247.14 204.12 C 250.22 203.70 248.45 199.83 248.87 197.74 C 245.87 198.23 247.56 202.02 247.14 204.12 Z" />
</g>
<g id="#d8f2cfff">
<path fill="#d8f2cf" opacity="1.00" d=" M 96.19 187.99 C 103.52 187.71 110.85 187.77 118.19 187.87 C 117.67 190.74 119.86 195.80 115.83 196.54 C 115.62 194.23 115.42 191.93 115.16 189.63 C 114.81 191.36 114.48 193.09 114.15 194.83 C 109.93 198.17 112.96 203.75 110.71 207.97 C 110.51 208.39 110.09 209.24 109.88 209.66 C 105.28 209.66 100.67 209.77 96.07 209.77 C 96.29 202.51 96.14 195.25 96.19 187.99 M 99.98 196.33 C 100.13 194.14 100.17 191.96 100.09 189.78 C 97.27 190.21 97.39 195.55 99.98 196.33 M 103.99 196.20 C 104.08 194.04 104.09 191.89 104.02 189.73 C 101.36 190.27 101.27 195.69 103.99 196.20 M 107.92 196.32 C 108.00 194.11 108.02 191.91 107.97 189.70 C 105.36 190.45 105.32 195.56 107.92 196.32 M 110.15 195.90 C 110.63 195.68 111.58 195.24 112.05 195.02 C 112.01 193.27 111.97 191.52 111.90 189.78 C 109.04 190.33 110.59 193.86 110.15 195.90 M 98.29 204.05 C 101.44 203.57 99.86 199.79 100.02 197.67 C 97.05 198.26 98.68 201.94 98.29 204.05 M 102.21 204.03 C 105.52 203.98 103.78 199.68 104.05 197.61 C 101.13 198.33 102.61 201.87 102.21 204.03 M 106.37 204.20 C 109.20 203.25 107.84 199.84 108.04 197.63 C 104.99 198.31 106.67 202.01 106.37 204.20 Z" />
</g>
<g id="#b5e7cdff">
<path fill="#b5e7cd" opacity="1.00" d=" M 22.86 189.65 C 26.02 190.17 24.40 193.94 24.80 196.13 C 21.43 196.08 23.11 191.79 22.86 189.65 Z" />
<path fill="#b5e7cd" opacity="1.00" d=" M 103.99 196.20 C 101.27 195.69 101.36 190.27 104.02 189.73 C 104.09 191.89 104.08 194.04 103.99 196.20 Z" />
<path fill="#b5e7cd" opacity="1.00" d=" M 145.81 191.64 C 148.84 191.93 147.79 195.43 147.70 197.50 C 147.25 197.70 146.37 198.12 145.92 198.32 C 145.80 196.09 145.76 193.86 145.81 191.64 Z" />
<path fill="#b5e7cd" opacity="1.00" d=" M 225.16 192.05 C 225.66 192.02 226.65 191.95 227.15 191.91 C 226.91 193.96 228.52 198.14 225.24 198.08 C 225.20 196.07 225.18 194.06 225.16 192.05 Z" />
</g>
<g id="#a8e3cbff">
<path fill="#a8e3cb" opacity="1.00" d=" M 73.34 192.57 C 74.74 193.15 74.75 196.89 73.29 197.37 C 72.41 196.01 72.43 193.91 73.34 192.57 Z" />
<path fill="#a8e3cb" opacity="1.00" d=" M 73.27 200.56 C 74.70 201.11 74.74 204.86 73.30 205.38 C 72.42 204.02 72.39 201.92 73.27 200.56 Z" />
</g>
<g id="#a9e3cbff">
<path fill="#a9e3cb" opacity="1.00" d=" M 77.30 192.53 C 78.69 193.09 78.73 196.84 77.28 197.38 C 76.37 196.01 76.44 193.91 77.30 192.53 Z" />
<path fill="#a9e3cb" opacity="1.00" d=" M 77.29 200.58 C 78.73 201.08 78.71 204.84 77.28 205.36 C 76.38 204.01 76.40 201.92 77.29 200.58 Z" />
<path fill="#a9e3cb" opacity="1.00" d=" M 45.34 202.56 C 46.78 203.03 46.84 206.88 45.37 207.35 C 44.48 205.99 44.49 203.93 45.34 202.56 Z" />
<path fill="#a9e3cb" opacity="1.00" d=" M 73.30 208.56 C 74.80 209.18 74.46 212.11 73.69 213.37 C 72.18 212.73 72.46 209.79 73.30 208.56 Z" />
</g>
<g id="#64bd88ff">
<path fill="#64bd88" opacity="1.00" d=" M 128.96 193.85 C 129.10 195.79 129.17 197.75 129.61 199.66 C 130.34 199.81 131.80 200.10 132.53 200.25 C 132.68 198.11 132.82 195.97 132.95 193.82 C 133.21 196.48 133.52 199.12 133.91 201.76 C 135.80 201.86 137.69 201.94 139.58 202.17 C 140.33 202.77 141.10 203.36 141.88 203.92 C 143.17 204.45 144.82 206.65 145.94 204.79 C 146.49 203.16 146.76 201.47 147.08 199.79 C 147.31 202.64 148.01 205.76 145.43 207.79 C 146.92 207.81 148.40 207.83 149.89 207.84 C 150.55 205.23 150.86 202.56 150.87 199.87 C 151.05 201.27 151.25 202.67 151.45 204.07 C 152.86 203.98 154.28 203.86 155.69 203.73 C 155.71 203.32 155.74 202.49 155.76 202.08 C 156.25 202.00 157.24 201.86 157.73 201.79 C 158.01 201.73 158.58 201.61 158.86 201.55 C 161.18 199.03 164.74 200.01 167.76 199.88 C 168.29 199.88 169.36 199.88 169.89 199.87 C 170.98 199.53 172.05 199.15 173.12 198.75 C 173.42 199.99 173.71 201.22 174.03 202.47 C 175.98 201.84 176.74 200.26 176.92 198.34 C 177.06 198.35 177.34 198.36 177.49 198.37 C 177.25 199.25 177.02 200.13 176.78 201.01 C 178.34 201.95 180.09 202.72 181.23 204.20 C 181.18 204.69 181.07 205.68 181.02 206.18 C 176.96 204.89 173.12 202.97 168.97 201.98 C 165.53 201.12 162.16 202.67 158.97 203.79 C 154.17 205.30 151.34 209.77 147.64 212.87 C 151.92 214.33 155.08 217.61 158.07 220.85 C 157.73 221.06 157.05 221.48 156.71 221.69 C 151.80 216.89 145.03 213.14 137.98 213.58 C 134.82 213.61 131.47 213.60 128.66 215.27 C 125.53 216.80 123.42 219.66 120.75 221.79 C 116.55 221.12 113.53 217.81 109.97 215.79 C 106.32 213.67 102.41 211.41 98.03 211.62 C 92.74 211.33 88.51 214.95 83.86 216.86 C 89.14 218.50 93.60 221.68 97.44 225.58 C 103.65 222.89 110.50 223.53 117.09 223.80 C 122.81 224.64 126.79 229.38 130.49 233.39 C 129.41 233.52 128.32 233.59 127.24 233.63 C 124.36 231.55 122.21 228.50 118.92 226.99 C 115.90 225.32 112.34 225.66 109.02 225.56 C 105.75 225.62 102.26 225.32 99.29 226.97 C 95.20 228.89 92.38 232.51 89.46 235.81 C 89.12 235.46 88.80 235.10 88.47 234.76 C 89.22 233.25 90.74 231.82 90.36 230.00 C 89.74 228.62 88.89 227.37 88.09 226.09 C 89.62 225.79 91.15 225.48 92.68 225.17 C 90.03 222.45 87.25 219.62 83.62 218.27 C 81.03 217.17 78.18 217.82 75.52 218.20 C 77.61 219.83 80.35 219.86 82.83 220.39 C 79.09 223.01 74.20 221.20 69.96 221.62 C 63.21 221.01 58.66 226.75 54.11 230.76 C 57.27 232.09 60.41 233.46 63.45 235.04 C 61.54 235.25 59.47 236.19 57.63 235.23 C 54.51 233.83 51.66 231.35 48.03 231.57 C 43.84 231.58 39.26 230.96 35.51 233.25 C 33.33 234.23 31.10 236.39 28.56 235.15 C 30.04 232.66 32.78 231.33 35.38 230.31 C 38.65 229.02 42.73 230.66 45.53 228.14 C 41.29 227.57 36.77 226.94 32.74 228.77 C 30.66 229.78 28.37 229.65 26.17 229.18 C 27.60 228.46 29.04 227.76 30.49 227.07 C 30.69 226.00 30.88 224.94 31.06 223.88 C 28.81 223.78 26.55 223.68 24.30 223.51 C 23.25 222.96 22.23 222.35 21.12 221.96 C 16.26 223.26 11.42 225.44 6.34 225.33 C 7.90 223.70 9.56 221.79 12.04 221.82 C 15.19 221.64 17.97 219.99 21.04 219.54 C 24.15 219.88 27.38 223.30 30.10 220.07 C 30.44 221.02 30.77 221.97 31.11 222.92 C 36.50 226.88 43.36 225.63 49.59 225.57 C 51.55 223.57 53.66 221.45 56.70 221.49 C 55.85 222.74 55.00 224.00 54.14 225.25 C 56.28 225.89 57.51 223.81 58.91 222.61 C 58.26 222.13 56.96 221.18 56.31 220.70 C 59.22 219.38 62.13 218.07 65.04 216.75 C 62.24 214.85 59.50 212.48 56.04 211.96 C 52.70 211.54 49.31 211.58 45.95 211.80 C 41.55 211.76 38.60 217.21 34.01 215.23 C 35.52 214.09 37.08 213.01 38.65 211.95 C 39.63 211.29 40.61 210.62 41.58 209.95 C 44.62 209.80 47.67 209.75 50.72 209.75 L 52.35 209.75 C 54.85 209.75 57.35 209.74 59.85 209.75 C 60.50 210.58 61.15 211.41 61.82 212.24 C 62.41 211.66 63.01 211.08 63.60 210.50 C 64.08 211.57 64.55 212.64 65.06 213.70 L 66.37 213.85 C 66.88 213.90 67.90 214.00 68.41 214.05 C 68.44 214.46 68.48 215.29 68.51 215.71 C 73.07 215.83 77.63 215.70 82.19 215.78 C 82.23 215.36 82.32 214.52 82.36 214.09 C 82.83 214.01 83.77 213.85 84.23 213.77 C 84.62 213.70 85.40 213.56 85.79 213.49 C 86.07 213.09 86.64 212.28 86.93 211.87 C 87.62 211.85 89.01 211.80 89.70 211.77 C 89.99 211.27 90.56 210.27 90.84 209.77 C 91.71 209.77 93.46 209.77 94.34 209.78 C 94.77 209.77 95.64 209.77 96.07 209.77 C 100.67 209.77 105.28 209.66 109.88 209.66 C 113.74 212.07 116.66 215.81 120.98 217.53 C 124.59 215.55 128.02 213.08 132.01 211.93 C 137.19 211.19 142.46 212.24 147.65 211.48 C 147.49 209.08 144.23 208.56 142.71 207.07 C 139.16 203.93 134.34 203.64 129.99 202.32 C 125.44 203.80 120.12 203.75 116.86 207.77 C 116.11 207.78 114.62 207.81 113.87 207.82 C 113.95 207.58 114.10 207.09 114.18 206.85 C 115.19 205.48 116.14 204.07 116.99 202.59 C 117.67 203.09 118.35 203.60 119.03 204.10 C 120.01 201.88 122.25 201.84 124.32 201.73 C 124.61 201.69 125.20 201.61 125.50 201.57 C 125.66 201.36 125.98 200.94 126.14 200.73 C 129.43 199.89 128.69 196.41 128.96 193.85 Z" />
<path fill="#64bd88" opacity="1.00" d=" M 26.01 202.07 C 28.22 201.90 27.63 199.46 28.00 197.90 C 28.17 199.05 28.36 200.20 28.58 201.35 L 29.80 202.30 C 30.73 203.01 31.65 203.73 32.56 204.47 C 32.41 204.88 32.12 205.70 31.97 206.11 C 27.29 204.78 22.95 202.14 18.04 201.74 C 10.81 202.32 4.11 206.13 0.00 212.14 L 0.00 208.44 C 0.94 207.00 1.98 205.63 3.04 204.29 C 4.96 204.07 6.67 203.32 7.91 201.81 C 8.19 201.79 8.76 201.77 9.04 201.76 C 9.33 201.76 9.91 201.78 10.19 201.78 C 11.95 198.64 16.02 200.23 18.92 199.82 C 19.37 199.82 20.27 199.81 20.72 199.81 C 21.52 199.80 23.10 199.79 23.89 199.78 C 24.57 200.56 25.28 201.32 26.01 202.07 Z" />
<path fill="#64bd88" opacity="1.00" d=" M 190.34 209.88 C 193.26 209.78 196.19 209.74 199.13 209.75 C 199.68 209.75 200.78 209.76 201.34 209.76 C 203.73 209.76 206.13 209.77 208.53 209.86 C 209.31 212.07 211.07 211.82 212.67 210.81 C 212.95 211.74 213.24 212.68 213.55 213.61 C 213.93 213.65 214.69 213.73 215.07 213.77 C 215.62 213.81 216.72 213.89 217.27 213.94 C 217.27 214.39 217.26 215.31 217.25 215.77 C 221.80 215.75 226.35 215.75 230.90 215.79 C 230.94 215.48 231.02 214.87 231.06 214.56 C 231.54 214.34 232.51 213.90 233.00 213.68 C 234.76 212.92 236.52 212.15 238.25 211.33 C 239.53 210.08 241.24 209.67 242.98 209.60 C 245.32 209.61 247.66 209.71 250.00 209.78 L 250.00 211.83 C 247.20 211.85 244.20 211.30 241.58 212.58 C 238.65 213.94 235.79 215.44 232.78 216.63 C 238.47 218.66 243.05 222.54 247.38 226.63 C 247.01 227.50 246.61 228.36 246.20 229.22 C 242.55 230.72 240.06 233.87 237.07 236.30 C 237.85 234.23 238.91 232.22 239.21 230.01 C 238.35 227.48 236.06 225.75 234.55 223.61 C 237.36 224.71 239.91 226.35 242.61 227.67 L 243.24 227.10 C 240.45 223.42 236.85 220.24 232.60 218.37 C 230.07 217.27 226.59 216.96 224.63 219.27 C 228.63 219.70 232.69 220.58 235.77 223.36 C 234.23 223.43 232.62 223.61 231.21 222.84 C 227.10 220.91 222.43 221.72 218.04 221.65 C 211.69 221.54 207.16 226.60 203.11 230.81 C 206.16 232.08 209.16 233.49 211.98 235.22 C 209.19 235.88 206.26 235.74 203.90 233.98 C 199.54 230.90 193.99 231.39 188.94 231.70 C 184.68 231.93 181.64 236.33 177.18 235.36 C 180.69 230.36 187.06 229.14 192.78 229.58 C 193.11 229.20 193.78 228.43 194.11 228.05 C 190.44 227.76 186.65 227.05 183.04 228.10 C 180.47 228.83 177.85 229.46 175.16 229.33 C 176.57 228.40 178.07 227.65 179.60 226.95 C 179.51 225.91 179.43 224.88 179.35 223.86 C 176.06 224.01 172.88 223.29 169.84 222.12 C 167.01 222.89 164.19 223.76 161.27 224.14 C 159.46 225.33 157.38 225.73 155.25 225.41 C 157.59 220.74 163.14 222.09 167.19 220.20 C 170.17 218.59 173.04 220.74 175.86 221.56 C 176.96 221.17 177.99 220.61 179.04 220.11 C 179.40 221.18 179.76 222.25 180.12 223.32 C 185.68 226.62 192.26 225.75 198.41 225.53 C 202.58 221.22 208.36 219.29 213.69 216.88 C 210.79 214.72 207.86 212.08 204.07 211.85 C 200.45 211.58 196.74 211.42 193.17 212.14 C 190.11 213.29 187.33 215.05 184.27 216.19 C 184.00 215.70 183.44 214.71 183.17 214.22 C 184.71 213.45 186.27 212.70 187.79 211.88 L 188.57 211.40 C 189.01 211.02 189.89 210.26 190.34 209.88 M 206.39 222.28 C 205.15 222.67 203.63 223.56 203.42 224.96 C 204.43 227.25 208.16 223.23 206.39 222.28 Z" />
<path fill="#64bd88" opacity="1.00" d=" M 147.81 233.48 C 147.31 229.96 150.75 227.83 153.06 225.82 C 153.84 225.87 155.39 225.96 156.17 226.01 C 153.66 228.78 151.24 231.81 147.81 233.48 Z" />
<path fill="#64bd88" opacity="1.00" d=" M 21.15 233.84 C 20.63 231.92 22.99 230.85 23.90 229.49 C 24.72 229.67 26.35 230.03 27.17 230.21 C 25.55 231.98 23.88 234.22 21.15 233.84 Z" />
</g>
<g id="#b8e8ccff">
<path fill="#b8e8cc" opacity="1.00" d=" M 29.80 202.30 C 30.40 200.63 31.01 198.95 31.99 197.46 C 32.92 199.34 32.83 201.48 32.88 203.52 L 32.56 204.47 C 31.65 203.73 30.73 203.01 29.80 202.30 Z" />
</g>
<g id="#e0f4cfff">
<path fill="#e0f4cf" opacity="1.00" d=" M 38.67 197.82 C 42.66 197.73 46.66 197.78 50.65 197.97 C 50.44 201.89 50.43 205.83 50.72 209.75 C 47.67 209.75 44.62 209.80 41.58 209.95 C 40.61 210.62 39.63 211.29 38.65 211.95 C 38.65 211.41 38.67 210.34 38.68 209.81 C 38.59 205.81 38.55 201.82 38.67 197.82 M 40.79 201.42 C 40.65 203.72 40.69 206.04 40.88 208.34 C 43.81 207.74 43.66 202.05 40.79 201.42 M 45.34 202.56 C 44.49 203.93 44.48 205.99 45.37 207.35 C 46.84 206.88 46.78 203.03 45.34 202.56 Z" />
</g>
<g id="#b6e7cdff">
<path fill="#b6e7cd" opacity="1.00" d=" M 102.21 204.03 C 102.61 201.87 101.13 198.33 104.05 197.61 C 103.78 199.68 105.52 203.98 102.21 204.03 Z" />
<path fill="#b6e7cd" opacity="1.00" d=" M 225.24 206.14 C 225.74 204.12 223.71 199.56 227.07 199.92 C 227.29 202.01 228.38 205.93 225.24 206.14 Z" />
<path fill="#b6e7cd" opacity="1.00" d=" M 225.31 214.15 C 225.74 212.09 223.58 207.38 227.04 207.86 C 227.23 210.11 228.37 213.48 225.31 214.15 Z" />
</g>
<g id="#e1f4cfff">
<path fill="#e1f4cf" opacity="1.00" d=" M 114.07 197.85 C 117.37 197.79 120.67 197.80 123.98 197.85 C 124.09 199.14 124.20 200.43 124.32 201.73 C 122.25 201.84 120.01 201.88 119.03 204.10 C 118.35 203.60 117.67 203.09 116.99 202.59 C 116.14 204.07 115.19 205.48 114.18 206.85 C 114.10 203.85 114.05 200.85 114.07 197.85 Z" />
</g>
<g id="#84e28aff">
<path fill="#84e28a" opacity="1.00" d=" M 0.00 212.14 C 4.11 206.13 10.81 202.32 18.04 201.74 C 22.95 202.14 27.29 204.78 31.97 206.11 C 32.12 205.70 32.41 204.88 32.56 204.47 L 32.88 203.52 C 32.88 204.13 32.89 205.37 32.89 205.99 C 31.90 208.06 35.53 208.09 33.79 206.15 C 34.27 206.32 35.25 206.66 35.74 206.83 L 35.14 207.98 C 34.52 209.54 35.09 210.23 36.86 210.05 C 37.31 209.99 38.22 209.87 38.68 209.81 C 38.67 210.34 38.65 211.41 38.65 211.95 C 37.08 213.01 35.52 214.09 34.01 215.23 C 38.60 217.21 41.55 211.76 45.95 211.80 C 49.31 211.58 52.70 211.54 56.04 211.96 C 59.50 212.48 62.24 214.85 65.04 216.75 C 62.13 218.07 59.22 219.38 56.31 220.70 C 56.96 221.18 58.26 222.13 58.91 222.61 C 57.51 223.81 56.28 225.89 54.14 225.25 C 55.00 224.00 55.85 222.74 56.70 221.49 C 53.66 221.45 51.55 223.57 49.59 225.57 C 43.36 225.63 36.50 226.88 31.11 222.92 C 30.77 221.97 30.44 221.02 30.10 220.07 C 27.38 223.30 24.15 219.88 21.04 219.54 C 17.97 219.99 15.19 221.64 12.04 221.82 C 9.56 221.79 7.90 223.70 6.34 225.33 C 11.42 225.44 16.26 223.26 21.12 221.96 C 22.23 222.35 23.25 222.96 24.30 223.51 C 26.55 223.68 28.81 223.78 31.06 223.88 C 30.88 224.94 30.69 226.00 30.49 227.07 C 29.04 227.76 27.60 228.46 26.17 229.18 C 28.37 229.65 30.66 229.78 32.74 228.77 C 36.77 226.94 41.29 227.57 45.53 228.14 C 42.73 230.66 38.65 229.02 35.38 230.31 C 32.78 231.33 30.04 232.66 28.56 235.15 C 31.10 236.39 33.33 234.23 35.51 233.25 C 39.26 230.96 43.84 231.58 48.03 231.57 C 51.66 231.35 54.51 233.83 57.63 235.23 C 59.47 236.19 61.54 235.25 63.45 235.04 C 60.41 233.46 57.27 232.09 54.11 230.76 C 58.66 226.75 63.21 221.01 69.96 221.62 C 74.20 221.20 79.09 223.01 82.83 220.39 C 80.35 219.86 77.61 219.83 75.52 218.20 C 78.18 217.82 81.03 217.17 83.62 218.27 C 87.25 219.62 90.03 222.45 92.68 225.17 C 91.15 225.48 89.62 225.79 88.09 226.09 C 88.89 227.37 89.74 228.62 90.36 230.00 C 90.74 231.82 89.22 233.25 88.47 234.76 C 88.80 235.10 89.12 235.46 89.46 235.81 C 92.38 232.51 95.20 228.89 99.29 226.97 C 102.26 225.32 105.75 225.62 109.02 225.56 C 112.34 225.66 115.90 225.32 118.92 226.99 C 122.21 228.50 124.36 231.55 127.24 233.63 C 128.32 233.59 129.41 233.52 130.49 233.39 C 126.79 229.38 122.81 224.64 117.09 223.80 C 110.50 223.53 103.65 222.89 97.44 225.58 C 93.60 221.68 89.14 218.50 83.86 216.86 C 88.51 214.95 92.74 211.33 98.03 211.62 C 102.41 211.41 106.32 213.67 109.97 215.79 C 113.53 217.81 116.55 221.12 120.75 221.79 C 123.42 219.66 125.53 216.80 128.66 215.27 C 131.47 213.60 134.82 213.61 137.98 213.58 C 145.03 213.14 151.80 216.89 156.71 221.69 C 157.05 221.48 157.73 221.06 158.07 220.85 C 155.08 217.61 151.92 214.33 147.64 212.87 C 151.34 209.77 154.17 205.30 158.97 203.79 C 162.16 202.67 165.53 201.12 168.97 201.98 C 173.12 202.97 176.96 204.89 181.02 206.18 C 181.07 205.68 181.18 204.69 181.23 204.20 C 181.48 204.61 181.97 205.42 182.22 205.83 C 180.71 207.65 184.25 208.42 183.04 206.14 C 183.36 206.42 183.99 206.96 184.30 207.24 C 185.37 208.23 186.38 209.27 187.38 210.34 C 187.48 210.72 187.69 211.49 187.79 211.88 C 186.27 212.70 184.71 213.45 183.17 214.22 C 183.44 214.71 184.00 215.70 184.27 216.19 C 187.33 215.05 190.11 213.29 193.17 212.14 C 196.74 211.42 200.45 211.58 204.07 211.85 C 207.86 212.08 210.79 214.72 213.69 216.88 C 208.36 219.29 202.58 221.22 198.41 225.53 C 192.26 225.75 185.68 226.62 180.12 223.32 C 179.76 222.25 179.40 221.18 179.04 220.11 C 177.99 220.61 176.96 221.17 175.86 221.56 C 173.04 220.74 170.17 218.59 167.19 220.20 C 163.14 222.09 157.59 220.74 155.25 225.41 C 157.38 225.73 159.46 225.33 161.27 224.14 C 164.19 223.76 167.01 222.89 169.84 222.12 C 172.88 223.29 176.06 224.01 179.35 223.86 C 179.43 224.88 179.51 225.91 179.60 226.95 C 178.07 227.65 176.57 228.40 175.16 229.33 C 177.85 229.46 180.47 228.83 183.04 228.10 C 186.65 227.05 190.44 227.76 194.11 228.05 C 193.78 228.43 193.11 229.20 192.78 229.58 C 187.06 229.14 180.69 230.36 177.18 235.36 C 181.64 236.33 184.68 231.93 188.94 231.70 C 193.99 231.39 199.54 230.90 203.90 233.98 C 206.26 235.74 209.19 235.88 211.98 235.22 C 209.16 233.49 206.16 232.08 203.11 230.81 C 207.16 226.60 211.69 221.54 218.04 221.65 C 222.43 221.72 227.10 220.91 231.21 222.84 C 232.62 223.61 234.23 223.43 235.77 223.36 C 232.69 220.58 228.63 219.70 224.63 219.27 C 226.59 216.96 230.07 217.27 232.60 218.37 C 236.85 220.24 240.45 223.42 243.24 227.10 L 242.61 227.67 C 239.91 226.35 237.36 224.71 234.55 223.61 C 236.06 225.75 238.35 227.48 239.21 230.01 C 238.91 232.22 237.85 234.23 237.07 236.30 C 240.06 233.87 242.55 230.72 246.20 229.22 C 242.14 237.77 234.57 244.50 225.70 247.74 C 223.48 247.34 221.25 247.00 219.00 246.95 C 161.33 247.04 103.66 247.00 45.98 246.99 C 38.74 247.22 31.42 246.36 24.24 247.67 C 11.45 243.25 2.15 231.15 0.21 217.87 C 1.16 217.84 3.04 217.78 3.98 217.75 C 5.29 219.12 6.60 220.49 7.91 221.87 C 8.21 221.60 8.82 221.07 9.12 220.80 C 6.45 217.84 3.63 214.92 0.00 213.14 L 0.00 212.14 M 33.40 216.22 C 32.03 216.46 30.41 218.19 31.26 219.59 C 32.82 220.49 35.22 216.89 33.40 216.22 M 182.07 216.20 C 180.49 219.15 185.41 216.38 182.07 216.20 M 180.16 218.15 C 178.50 221.06 183.50 218.43 180.16 218.15 M 83.21 222.08 C 81.98 223.65 84.92 224.74 85.87 223.56 C 87.11 221.99 84.15 220.86 83.21 222.08 M 147.81 233.48 C 151.24 231.81 153.66 228.78 156.17 226.01 C 155.39 225.96 153.84 225.87 153.06 225.82 C 150.75 227.83 147.31 229.96 147.81 233.48 M 21.15 233.84 C 23.88 234.22 25.55 231.98 27.17 230.21 C 26.35 230.03 24.72 229.67 23.90 229.49 C 22.99 230.85 20.63 231.92 21.15 233.84 M 172.54 230.36 C 171.73 230.89 170.26 231.75 170.67 232.91 C 172.07 233.54 173.51 232.10 174.32 231.08 C 175.14 229.87 173.12 229.76 172.54 230.36 M 27.11 236.09 C 26.62 237.48 27.09 237.96 28.51 237.52 C 29.00 236.13 28.53 235.65 27.11 236.09 M 175.45 236.17 C 174.55 237.42 176.73 238.56 177.49 237.40 C 178.40 236.15 176.20 234.99 175.45 236.17 Z" />
<path fill="#84e28a" opacity="1.00" d=" M 116.86 207.77 C 120.12 203.75 125.44 203.80 129.99 202.32 C 134.34 203.64 139.16 203.93 142.71 207.07 C 144.23 208.56 147.49 209.08 147.65 211.48 C 142.46 212.24 137.19 211.19 132.01 211.93 C 128.02 213.08 124.59 215.55 120.98 217.53 C 116.66 215.81 113.74 212.07 109.88 209.66 C 110.09 209.24 110.51 208.39 110.71 207.97 C 111.76 207.89 112.81 207.84 113.87 207.82 C 114.62 207.81 116.11 207.78 116.86 207.77 Z" />
<path fill="#84e28a" opacity="1.00" d=" M 241.58 212.58 C 244.20 211.30 247.20 211.85 250.00 211.83 L 250.00 216.28 C 249.45 219.80 248.70 223.31 247.38 226.63 C 243.05 222.54 238.47 218.66 232.78 216.63 C 235.79 215.44 238.65 213.94 241.58 212.58 Z" />
</g>
<g id="#55b57dff">
<path fill="#55b57d" opacity="1.00" d=" M 32.89 205.99 L 33.79 206.15 C 35.53 208.09 31.90 208.06 32.89 205.99 Z" />
</g>
<g id="#50b17aff">
<path fill="#50b17a" opacity="1.00" d=" M 182.22 205.83 L 183.04 206.14 C 184.25 208.42 180.71 207.65 182.22 205.83 Z" />
</g>
<g id="#67be8cff">
<path fill="#67be8c" opacity="1.00" d=" M 35.14 207.98 C 36.72 207.85 37.29 208.54 36.86 210.05 C 35.09 210.23 34.52 209.54 35.14 207.98 Z" />
</g>
<g id="#aae3cbff">
<path fill="#aae3cb" opacity="1.00" d=" M 77.32 208.54 C 78.71 209.08 78.73 212.81 77.26 213.31 C 76.34 211.97 76.42 209.87 77.32 208.54 Z" />
</g>
<g id="#67bf87fc">
<path fill="#67bf87" opacity="1.00" d=" M 0.00 213.14 C 3.63 214.92 6.45 217.84 9.12 220.80 C 8.82 221.07 8.21 221.60 7.91 221.87 C 6.60 220.49 5.29 219.12 3.98 217.75 C 3.04 217.78 1.16 217.84 0.21 217.87 C 0.16 217.55 0.05 216.91 0.00 216.59 L 0.00 213.14 Z" />
</g>
<g id="#67c189ff">
<path fill="#67c189" opacity="1.00" d=" M 33.40 216.22 C 35.22 216.89 32.82 220.49 31.26 219.59 C 30.41 218.19 32.03 216.46 33.40 216.22 Z" />
</g>
<g id="#5cb387ff">
<path fill="#5cb387" opacity="1.00" d=" M 182.07 216.20 C 185.41 216.38 180.49 219.15 182.07 216.20 Z" />
</g>
<g id="#5cb487ff">
<path fill="#5cb487" opacity="1.00" d=" M 180.16 218.15 C 183.50 218.43 178.50 221.06 180.16 218.15 Z" />
</g>
<g id="#63bc89ff">
<path fill="#63bc89" opacity="1.00" d=" M 83.21 222.08 C 84.15 220.86 87.11 221.99 85.87 223.56 C 84.92 224.74 81.98 223.65 83.21 222.08 Z" />
</g>
<g id="#83e08aff">
<path fill="#83e08a" opacity="1.00" d=" M 206.39 222.28 C 208.16 223.23 204.43 227.25 203.42 224.96 C 203.63 223.56 205.15 222.67 206.39 222.28 Z" />
</g>
<g id="#5bb288ff">
<path fill="#5bb288" opacity="1.00" d=" M 172.54 230.36 C 173.12 229.76 175.14 229.87 174.32 231.08 C 173.51 232.10 172.07 233.54 170.67 232.91 C 170.26 231.75 171.73 230.89 172.54 230.36 Z" />
</g>
<g id="#62bb88ff">
<path fill="#62bb88" opacity="1.00" d=" M 27.11 236.09 C 28.53 235.65 29.00 236.13 28.51 237.52 C 27.09 237.96 26.62 237.48 27.11 236.09 Z" />
</g>
<g id="#67c088ff">
<path fill="#67c088" opacity="1.00" d=" M 175.45 236.17 C 176.20 234.99 178.40 236.15 177.49 237.40 C 176.73 238.56 174.55 237.42 175.45 236.17 Z" />
</g>
<g id="#9bff9cff">
<path fill="#9bff9c" opacity="1.00" d=" M 24.24 247.67 C 31.42 246.36 38.74 247.22 45.98 246.99 C 103.66 247.00 161.33 247.04 219.00 246.95 C 221.25 247.00 223.48 247.34 225.70 247.74 L 224.52 248.08 C 190.34 248.45 156.17 248.23 121.99 248.30 C 89.82 248.19 57.64 248.54 25.47 248.07 L 24.24 247.67 Z" />
</g>
<g id="#42835cfd">
<path fill="#42835c" opacity="1.00" d=" M 25.47 248.07 C 57.64 248.54 89.82 248.19 121.99 248.30 C 156.17 248.23 190.34 248.45 224.52 248.08 C 222.68 248.60 220.82 249.05 218.97 249.50 C 217.73 248.60 216.44 248.50 215.09 249.18 C 212.74 249.01 210.39 248.78 208.03 248.74 C 155.35 248.73 102.67 248.73 49.99 248.73 C 44.59 248.78 39.14 248.35 33.79 249.34 C 32.41 248.37 30.54 248.37 29.18 249.39 C 27.95 248.93 26.71 248.49 25.47 248.07 Z" />
</g>
<g id="#00000087">
<path fill="#000000" opacity="0.53" d=" M 29.18 249.39 C 30.54 248.37 32.41 248.37 33.79 249.34 L 33.45 250.00 L 29.55 250.00 L 29.18 249.39 Z" />
</g>
<g id="#000000f2">
</g>
<g id="#000000b6">
<path fill="#000000" opacity="0.71" d=" M 215.09 249.18 C 216.44 248.50 217.73 248.60 218.97 249.50 L 218.55 250.00 L 215.13 250.00 L 215.09 249.18 Z" />
</g>
</svg>
