<?xml version="1.0" encoding="iso-8859-1"?>
<!-- Generator: Adobe Illustrator 18.0.0, SVG Export Plug-In . SVG Version: 6.00 Build 0)  -->
<!DOCTYPE svg PUBLIC "-//W3C//DTD SVG 1.1//EN" "http://www.w3.org/Graphics/SVG/1.1/DTD/svg11.dtd">
<svg version="1.1" id="Capa_1" xmlns="http://www.w3.org/2000/svg" xmlns:xlink="http://www.w3.org/1999/xlink" x="0px" y="0px"
	 viewBox="0 0 60 60" style="enable-background:new 0 0 60 60;" xml:space="preserve">
<path style="fill:#E9E9E7;" d="M33.809,5.28c-2.251-1.711-5.367-1.711-7.618,0L5,21.386v5.896c0.346-0.08,0.714-0.082,1.063-0.033
	c0.956,0.136,1.917,0.657,2.399,1.588c0.265,0.511,0.338,1.151,0.216,1.721c-0.129,0.602,0.035,1.255,0.411,1.711
	c0.222,0.269,0.384,0.61,0.456,0.965c0.164,0.82-0.053,1.676-0.357,2.444c-0.203,0.514-0.458,1.02-0.776,1.457
	c-0.479,0.659-0.479,1.566-0.148,2.33c0.327,0.756,0.384,1.69,0.141,2.495c-0.417,1.38-1.514,2.385-2.698,2.997
	C5.484,45.072,5.244,45.172,5,45.247v5.139h3.657c0.181,0,0.319,0.161,0.292,0.339L8,56.997h45.153c1.02,0,1.847-0.827,1.847-1.847
	V21.386L33.809,5.28z"/>
<rect x="13" y="26.997" style="fill:#AFB6BB;" width="35" height="30"/>
<g>
	<rect x="13" y="30.997" style="fill:#C7CAC7;" width="35" height="2"/>
	<rect x="13" y="35.997" style="fill:#C7CAC7;" width="35" height="2"/>
	<rect x="13" y="40.997" style="fill:#C7CAC7;" width="35" height="2"/>
	<rect x="13" y="45.997" style="fill:#C7CAC7;" width="35" height="2"/>
	<rect x="13" y="50.997" style="fill:#C7CAC7;" width="35" height="2"/>
</g>
<path style="fill:#6C342A;" d="M54.999,26.774c-0.21,0-0.423-0.066-0.604-0.204L31.826,9.417c-1.076-0.817-2.578-0.816-3.652,0
	L5.605,26.57c-0.44,0.335-1.068,0.249-1.401-0.19c-0.334-0.44-0.249-1.067,0.191-1.401L26.964,7.825
	c1.787-1.359,4.284-1.359,6.072,0l22.569,17.152c0.44,0.334,0.525,0.961,0.191,1.401C55.6,26.638,55.301,26.774,54.999,26.774z"/>
<path style="fill:#6C342A;" d="M59.6,23.586l-4.019-3.015L34.414,4.485c-2.599-1.977-6.229-1.975-8.828,0L4.419,20.571L0.4,23.586
	c-0.442,0.331-0.531,0.958-0.2,1.399c0.196,0.263,0.497,0.4,0.801,0.4c0.208,0,0.419-0.065,0.599-0.2l8-6
	c0.047-0.035,0.073-0.084,0.112-0.125L26.796,6.076c1.887-1.434,4.521-1.434,6.408,0l12.973,9.86
	c0.061,0.091,0.129,0.18,0.222,0.249l12,9c0.18,0.135,0.391,0.2,0.599,0.2c0.304,0,0.604-0.138,0.801-0.4
	C60.131,24.544,60.042,23.917,59.6,23.586z"/>
<line style="fill:none;stroke:#6B5B4B;stroke-width:2;stroke-miterlimit:10;" x1="5" y1="43.997" x2="5" y2="51.997"/>
<path style="fill:#23A24D;" d="M9.188,35.677c0.304-0.768,0.521-1.625,0.357-2.444c-0.071-0.355-0.233-0.696-0.456-0.965
	c-0.376-0.455-0.54-1.109-0.411-1.711c0.122-0.57,0.049-1.21-0.216-1.721c-0.483-0.931-1.444-1.452-2.399-1.588
	c-0.702-0.1-1.477,0.007-1.997,0.543l-0.618,0.534c-0.702,0.331-1.24,1.064-1.394,1.897c-0.083,0.452-0.053,0.926,0.077,1.364
	c0.194,0.653,0.033,1.359-0.338,1.908c-0.836,1.236-1.057,3.007-0.441,4.409c0.078,0.178,0.179,0.354,0.297,0.513
	c0.404,0.543,0.556,1.263,0.387,1.944c-0.039,0.156-0.065,0.316-0.08,0.475c-0.066,0.727,0.082,1.455,0.232,2.167
	c0.156,0.74,0.348,1.539,0.888,2.003c0.732,0.629,1.792,0.385,2.63-0.047c1.184-0.611,2.28-1.617,2.698-2.997
	c0.244-0.805,0.186-1.739-0.141-2.495c-0.33-0.764-0.33-1.671,0.148-2.33C8.73,36.697,8.985,36.191,9.188,35.677z"/>
<path style="fill:#9E6C53;" d="M8,56.997H2l-0.948-6.267c-0.027-0.182,0.113-0.345,0.297-0.345h7.308
	c0.181,0,0.319,0.161,0.292,0.339L8,56.997z"/>
<g>
</g>
<g>
</g>
<g>
</g>
<g>
</g>
<g>
</g>
<g>
</g>
<g>
</g>
<g>
</g>
<g>
</g>
<g>
</g>
<g>
</g>
<g>
</g>
<g>
</g>
<g>
</g>
<g>
</g>
</svg>
