<svg 
    version="1.0" xmlns="http://www.w3.org/2000/svg" width="30px" height="30px" viewBox="0 0 512 512">
    <g transform="translate(0,512) scale(0.1,-0.1)" >
    <path fill="var(--Icons-A-C)" xmlns="http://www.w3.org/2000/svg" d="M2475 4581 c-22 -10 -52 -31 -67 -47 -15 -16 -152 -281 -304 -589 -152 -308 -278 -561 -279 -563 -2 -2 -279 -44 -616 -93 -513 -75 -622 -94 -665 -115 -67 -32 -106 -88 -112 -162 -9 -105 -13 -100 466 -565 240 -234 445 -433 455 -444 17 -20 14 -42 -92 -645 -77 -437 -109 -635 -104 -662 9 -56 60 -126 113 -154 37 -19 56 -23 105 -20 56 4 94 22 617 296 307 161 562 292 569 292 6 0 261 -131 566 -291 347 -182 570 -293 594 -296 117 -16 239 87 239 201 0 21 -47 307 -105 635 -58 328 -104 605 -103 617 2 12 190 202 460 463 379 367 460 450 474 487 23 60 15 132 -20 182 -54 78 -47 76 -738 177 -346 51 -630 94 -632 96 -2 2 -128 256 -280 564 -152 308 -289 573 -304 589 -37 39 -98 66 -152 66 -25 0 -63 -9 -85 -19z m281 -1088 c104 -212 201 -405 216 -429 52 -82 61 -85 566 -158 249 -36 458 -66 465 -66 6 0 -142 -154 -330 -342 -356 -358 -364 -368 -362 -448 0 -14 35 -226 77 -472 l78 -446 -46 23 c-25 12 -207 109 -405 214 -197 106 -378 196 -401 201 -80 18 -59 27 -556 -237 -199 -106 -353 -181 -359 -177 -7 4 -9 3 -5 -4 3 -6 2 -13 -4 -17 -5 -3 -10 0 -10 7 0 7 34 210 75 450 41 240 75 452 75 470 -1 76 -30 112 -368 451 -180 180 -327 327 -326 327 26 0 910 134 933 141 73 24 96 62 296 492 104 224 192 407 196 407 3 0 91 -174 195 -387z"/>
    <path fill="var(--Icons-A-C)" xmlns="http://www.w3.org/2000/svg" d="M2475 4581 c-22 -10 -52 -31 -67 -47 -15 -16 -152 -281 -304 -589 -152 -308 -278 -561 -279 -563 -2 -2 -279 -44 -616 -93 -513 -75 -622 -94 -665 -115 -67 -32 -106 -88 -112 -162 -9 -105 -13 -100 466 -565 240 -234 445 -433 455 -444 17 -20 14 -42 -92 -645 -77 -437 -109 -635 -104 -662 9 -56 60 -126 113 -154 37 -19 56 -23 105 -20 56 4 94 22 617 296 307 161 562 292 569 292 6 0 261 -131 566 -291 347 -182 570 -293 594 -296 117 -16 239 87 239 201 0 21 -47 307 -105 635 -58 328 -104 605 -103 617 2 12 190 202 460 463 379 367 460 450 474 487 23 60 15 132 -20 182 -54 78 -47 76 -738 177 -346 51 -630 94 -632 96 -2 2 -128 256 -280 564 -152 308 -289 573 -304 589 -37 39 -98 66 -152 66 -25 0 -63 -9 -85 -19z"/>
    </g>
</svg>